<?xml version="1.0" encoding="utf-8"?>
<!-- Generator: Adobe Illustrator 18.1.1, SVG Export Plug-In . SVG Version: 6.00 Build 0)  -->
<svg version="1.1" id="Calque_1" xmlns="http://www.w3.org/2000/svg" xmlns:xlink="http://www.w3.org/1999/xlink" x="0px" y="0px"
	 width="98.5px" height="246.2px" viewBox="0 0 98.5 246.2" style="enable-background:new 0 0 98.5 246.2;" xml:space="preserve">
<g>
	<defs>
		<rect id="SVGID_1_" x="-46.5" y="-45.8" width="160" height="292"/>
	</defs>
	<clipPath id="SVGID_2_">
		<use xlink:href="#SVGID_1_"  style="overflow:visible;"/>
	</clipPath>
	<g style="clip-path:url(#SVGID_2_);">
		<path style="fill:#E55852;" d="M96.5,83c-3.2-0.8-6.7,2.9-7.5,6.2L87.8,94l0.2-16c0-3.3,1.7-5.9-1.6-5.9c-1.1,0-2.1,0.3-3,0.8
			l-0.1-1.3c0.1-3.3,1.2-6.9-2.2-7c-3.3-0.1-5.9,5.8-6,9.1c0,0-1.4,11.8-1.6,14.4c-0.4,5.7-1.5,10.3-2.2,12.7
			c-2-3.9-5.6-7.2-8.1-10.4c-2.2-2.8-4.8-7.3-6.1-8.9c-2-2.5-4.2-7.1-5-7.1c-4.1,0-4.1,2.3-3.9,6.4c0.3,6.8,1.7,9.7,5.5,14.4
			c0.1,0.2,0.2,0.3,0.4,0.5c1.9,2.5,4.5,7.8,4.4,10.8c-0.2,2.9-6.7,20.4-10.3,23c-3.7,2.7-12.3-2-14.3-4.7c-1-1.3-1.2-2.1-1.4-3.6
			c-0.5-5-1.3-8.4-1.7-10.9c-0.2-0.9,0.2-3.4,0.1-5.3c-0.1-3.8-0.7-7.5-1.6-11.4c-0.9-4.2-2.4-7.8-6.7-6.9c-4.2,0.9-4.8,5-4.7,8.7
			c0.2,3.8-0.1,5.9,0,9.1c0.1,2.9-1.5,6.9-1.1,9c0.3,1.4,0.5,4.8,0.5,8.2c-0.1,1.1-0.1,2.3-0.1,3.5c-0.1,2.3,0.2,4.2,0.7,5.9
			c1.3,6.8,3.7,13,3.7,13s3.5,12.9,4.2,18.2c1,7.6,3.4,113.8,3.4,113.8l39.8-0.8c0,0-3.1-100.3-1.5-110.9c0.6-3.7,3.7-16.9,6.7-22.3
			c2.9-5.4,16-20.5,16-20.5c0.5-0.7,1.2-2,1.4-2.8l5.8-27C98.3,88.8,99.8,83.8,96.5,83z"/>
		<g>
			<g>
				<path id="ampoule_77_" style="fill:#F6BF41;" d="M60.9,40.6c0-12.7-10.4-23-23.1-23c-12.7,0-23,10.4-23,23.1c0,7.5,9,19.4,9,20
					c0,7.8,6.4,14.1,14.1,14.1c7.8,0,14.1-6.4,14.1-14.1C52,60.1,60.9,48.1,60.9,40.6"/>
				<path id="ampoule_76_" style="fill:#D2D3D4;" d="M51,74.1l-26.3,0.1c-1.7,0-3.1-1.5-3.1-3.2c0-1.7,1.4-3.2,3.1-3.2L51,67.6
					c1.7,0,3.1,1.5,3.1,3.2C54.1,72.6,52.7,74.1,51,74.1"/>
				<path id="ampoule_75_" style="fill:#D2D3D4;" d="M46.9,77.6L29,77.6c-1.2,0-2.1-1.1-2.1-2.3c0-1.3,0.9-2.3,2.1-2.3l17.9,0
					c1.2,0,2.1,1.1,2.1,2.3C49,76.5,48.1,77.6,46.9,77.6"/>
				<path id="ampoule_74_" style="fill:#D2D3D4;" d="M46.9,81.7l-17.9,0.1c-1.2,0-2.1-1.1-2.1-2.3c0-1.3,0.9-2.3,2.1-2.3l17.9,0
					c1.2,0,2.1,1.1,2.1,2.3C49,80.6,48.1,81.7,46.9,81.7"/>
				<path id="ampoule_73_" style="fill:#D2D3D4;" d="M46.9,86.3l-17.9,0c-1.2,0-2.1-1.1-2.1-2.3c0-1.3,0.9-2.3,2.1-2.3l17.9,0
					c1.2,0,2.1,1.1,2.1,2.3C49,85.3,48.1,86.3,46.9,86.3"/>
				<path id="ampoule_72_" style="fill:#D2D3D4;" d="M46.9,91L29,91c-1.2,0-2.1-1.1-2.1-2.3c0-1.3,0.9-2.3,2.1-2.3l17.9,0
					c1.2,0,2.1,1.1,2.1,2.3C49,89.9,48,91,46.9,91"/>
				<polygon id="ampoule_71_" style="fill:#D2D3D4;" points="45.7,92 43.2,95.7 33.2,95.7 30.6,92 30.5,70.6 45.7,70.6 				"/>
			</g>
			<g>
				<line style="fill:#F6BF41;stroke:#F6BF41;stroke-width:0.8413;stroke-miterlimit:10;" x1="32.7" y1="12.2" x2="31.3" y2="0"/>
				<line style="fill:#F6BF41;stroke:#F6BF41;stroke-width:0.8413;stroke-miterlimit:10;" x1="12.4" y1="26.9" x2="1.3" y2="20.8"/>
				
					<line style="fill:#F6BF41;stroke:#F6BF41;stroke-width:0.8413;stroke-miterlimit:10;" x1="60.4" y1="20.7" x2="70.3" y2="10.1"/>
				<line style="fill:#F6BF41;stroke:#F6BF41;stroke-width:0.8413;stroke-miterlimit:10;" x1="68" y1="44.4" x2="81" y2="47.7"/>
				<line style="fill:#F6BF41;stroke:#F6BF41;stroke-width:0.8413;stroke-miterlimit:10;" x1="0" y1="52.1" x2="10.4" y2="48.8"/>
			</g>
		</g>
	</g>
</g>
</svg>
