<svg xmlns="http://www.w3.org/2000/svg" width="58.92" height="149.71" viewBox="0 0 58.92 149.71"><path fill="#3DC2DE" d="M57.76 45.37c-1.89-.47-3.91 1.7-4.38 3.58l-.7 2.84.09-9.33c0-1.9.97-3.43-.93-3.43-.64 0-1.24.18-1.76.49l-.04-.76c.04-1.95.68-4.03-1.27-4.07-1.94-.04-3.42 3.35-3.46 5.29 0 0-.82 6.86-.93 8.36-.24 3.32-.89 5.96-1.31 7.36-1.14-2.27-3.27-4.16-4.74-6.04-1.28-1.64-2.8-4.25-3.53-5.17-1.16-1.46-2.44-4.14-2.88-4.14-2.39.01-2.37 1.34-2.26 3.73.16 3.95 1.02 5.64 3.17 8.39.09.11.12.18.22.31 1.09 1.47 2.64 4.55 2.54 6.26-.1 1.71-3.87 11.84-6 13.39-2.13 1.55-7.18-1.18-8.34-2.71-.58-.77-.71-1.24-.79-2.06-.27-2.9-.73-4.88-.99-6.35-.1-.53.1-1.95.08-3.08-.04-2.23-.42-4.33-.91-6.62-.53-2.46-1.42-4.52-3.87-3.99-2.45.52-2.81 2.93-2.71 5.08.1 2.2-.05 3.44-.01 5.27.03 1.67-.87 4.03-.66 5.25.15.84.32 2.77.32 4.75-.07.64-.08 1.33-.05 2.04-.05 1.33.12 2.42.42 3.41.74 3.95 2.17 7.57 2.17 7.57s2.03 7.49 2.44 10.57c.58 4.4.97 58.15.97 58.15h23.15s-.81-50.8.12-56.94c.33-2.16 2.17-9.82 3.87-12.94 1.7-3.11 9.3-11.89 9.3-11.89.29-.38.7-1.17.82-1.63l3.4-15.71c.47-1.86 1.33-4.77-.56-5.23zM37.06 20.75c-.02-7.39-6.03-13.37-13.43-13.35-7.39.02-13.37 6.03-13.35 13.42.01 4.33 5.22 11.27 5.22 11.6.01 4.53 3.69 8.19 8.22 8.18s8.19-3.69 8.18-8.22c0-.33 5.18-7.3 5.16-11.63"/><path fill="#D1D3D4" d="M31.32 40.2l-15.27.04c-.99 0-1.8-.87-1.8-1.86s.8-1.87 1.79-1.87l15.27-.04c.99 0 1.8.87 1.8 1.86 0 .99-.8 1.86-1.79 1.87"/><path fill="#D1D3D4" d="M28.92 42.24l-10.38.03c-.68 0-1.22-.61-1.23-1.35 0-.74.54-1.36 1.22-1.36l10.39-.03c.67 0 1.22.61 1.22 1.35 0 .74-.54 1.36-1.22 1.36"/><path fill="#D1D3D4" d="M28.93 44.62l-10.39.03c-.67 0-1.22-.61-1.23-1.35 0-.74.54-1.36 1.22-1.36l10.39-.03c.67 0 1.22.61 1.23 1.35 0 .74-.55 1.35-1.22 1.36"/><path fill="#D1D3D4" d="M28.94 47.33l-10.38.03c-.68 0-1.22-.61-1.23-1.35 0-.74.54-1.36 1.22-1.36l10.39-.03c.68 0 1.22.61 1.22 1.35 0 .74-.55 1.36-1.22 1.36"/><path fill="#D1D3D4" d="M28.91 50.04l-10.39.03c-.67 0-1.22-.61-1.22-1.36 0-.74.54-1.36 1.22-1.36l10.38-.03c.68 0 1.22.61 1.22 1.35.01.75-.54 1.36-1.21 1.37"/><path fill="#D1D3D4" d="M28.23 50.62l-1.46 2.14-5.81.01-1.54-2.12-.04-12.45 8.82-.02z"/><g fill="none" stroke="#3DC2DE" stroke-width="1.092" stroke-miterlimit="10"><path d="M14.25 6.3l-3.86-6M6.85 17.6l-6.79-.7M33.11 6.72l3.95-5.51M40.71 19.04l7.83.05"/></g></svg>