<svg xmlns="http://www.w3.org/2000/svg" width="102.5" height="286" viewBox="0 0 102.5 286"><path d="M2.1 86.3c3.4-.8 7 3 7.8 6.4l1.3 5.1-.2-16.7c0-3.4-1.7-6.1 1.7-6.1 1.1 0 2.2.3 3.1.9l.1-1.4c-.1-3.5-1.2-7.2 2.3-7.3 3.5-.1 6.1 6 6.2 9.5 0 0 1.5 12.3 1.7 15 .4 5.9 1.6 10.7 2.3 13.2 2-4.1 5.8-7.4 8.5-10.8 2.3-2.9 5-7.6 6.3-9.2 2.1-2.6 4.4-7.4 5.1-7.4 4.3 0 4.2 2.4 4 6.7-.3 6.8-1.8 9.9-5.7 14.8-.2.2-.2.3-.4.6-2 2.6-4.7 8.1-4.5 11.2.2 3.1 6.9 21.2 10.7 23.9 3.8 2.8 12.8-2.1 14.9-4.8 1-1.4 1.3-2.2 1.4-3.7.5-5.2 1.3-8.7 1.8-11.3.2-.9-.2-3.5-.1-5.5.1-4 .7-7.7 1.6-11.8.9-4.4 2.5-8.1 6.9-7.1 4.4.9 5 5.2 4.9 9.1-.2 3.9.1 6.1 0 9.4-.1 3 1.6 7.2 1.2 9.4-.3 1.5-.6 5-.6 8.5.1 1.2.1 2.4.1 3.6.1 2.4-.2 4.3-.7 6.1-1.3 7.1-3.9 13.5-3.9 13.5s-3.6 13.4-4.4 18.9c-1 7.9-3.5 299.5-3.5 299.5l-41.4-.8s3.2-285.5 1.6-296.5c-.6-3.9-3.9-17.6-6.9-23.1-3-5.6-16.6-21.3-16.6-21.3-.5-.7-1.3-2.1-1.5-2.9L1.1 95.7c-.9-3.4-2.4-8.6 1-9.4z" fill="#41A669"/><path d="M39.1 42.3c0-13.2 10.8-23.9 24-23.9S87 29.2 87 42.4c0 7.8-9.3 20.2-9.3 20.8 0 8.1-6.6 14.6-14.7 14.6s-14.6-6.6-14.6-14.7c-.1-.6-9.3-13.1-9.3-20.8" fill="#F6BF41"/><path d="M49.3 77l27.3.1c1.8 0 3.2-1.5 3.2-3.3 0-1.8-1.4-3.3-3.2-3.3l-27.3-.1c-1.8 0-3.2 1.6-3.2 3.3 0 1.7 1.5 3.3 3.2 3.3" fill="#D2D3D4"/><path d="M53.6 80.7l18.6.1c1.2 0 2.2-1.1 2.2-2.4 0-1.3-1-2.4-2.2-2.4l-18.6-.1c-1.2 0-2.2 1.1-2.2 2.4.1 1.3 1 2.4 2.2 2.4" fill="#D2D3D4"/><path d="M53.6 84.9l18.6.1c1.2 0 2.2-1.1 2.2-2.4 0-1.3-1-2.4-2.2-2.4H53.6c-1.2 0-2.2 1.1-2.2 2.4 0 1.2 1 2.3 2.2 2.3" fill="#D2D3D4"/><path d="M53.6 89.8l18.6.1c1.2 0 2.2-1.1 2.2-2.4 0-1.3-1-2.4-2.2-2.4H53.6c-1.2 0-2.2 1.1-2.2 2.4 0 1.2 1 2.3 2.2 2.3" fill="#D2D3D4"/><path d="M53.7 94.6l18.6.1c1.2 0 2.2-1.1 2.2-2.4 0-1.3-1-2.4-2.2-2.4H53.7c-1.2 0-2.2 1.1-2.2 2.4 0 1.2 1 2.3 2.2 2.3" fill="#D2D3D4"/><path fill="#D2D3D4" d="M54.9 95.7l2.6 3.8h10.4l2.7-3.8.1-22.3H54.9z"/><g fill="#F6BF41" stroke="#F6BF41" stroke-width=".635" stroke-miterlimit="10"><path d="M68.4 12.7L69.9 0M89.5 28l11.5-6.3M39.6 21.5l-10.3-11M31.7 46.2l-13.5 3.5M102.4 54.2l-10.8-3.4"/></g></svg>