<svg xmlns="http://www.w3.org/2000/svg" viewBox="0 0 41.1 35.1"><style>.st0{fill:#071f32}</style><path class="st0" d="M37.8 20.8c-.1 0-.2.1-.4.5-3.5 7.6-9.8 11.2-16.6 11.2-13.5.1-16.6-11-16.7-11.3l6.9 1.3c0 .1 2.7 6.1 9.6 6.1 7.3 0 12.4-7.3 12.4-14.9C33 6.9 30.1 3 26 0L7.3 8.6c-.2.1-.2.4 0 .4 10.3 2.4 12.1 9.8 11.6 14-.1.6.3.5.7-.7C21 18.1 20 12 14.4 8.6l10.4-5.2c1.2 1 5.3 3.7 5.3 10.3 0 6.5-3.8 12.5-9.6 12.5s-7.8-5.9-7.8-6L.4 17.6c-.2-.1-.4.1-.4.3C1.1 27.3 8.6 35 19.5 35c9.1 0 15.2-5 17.8-12 .7-1.6.6-2.2.5-2.2"/></svg>