<svg class="rheader-logo-paris-svg" xmlns="http://www.w3.org/2000/svg" viewBox="0 0 179.3 35.2"><style>.st0{fill:#071f32}</style><path class="st0" d="M15.8 14.1c0 4.1-3.3 7.4-7.6 7.4H5v6.8H0V6.7h8.2c4.3 0 7.6 3.3 7.6 7.4m-5 0c0-1.6-1.1-2.8-2.6-2.8H5v5.6h3.3c1.4 0 2.5-1.2 2.5-2.8m50.3-7.4h5v21.7h-5zM44.7 21.5v6.8h-5V6.7h8.7c4.1 0 7.4 3.3 7.4 7.4 0 2.7-1.5 5.3-3.9 6.4l4.6 7.8h-5.3l-3.9-6.8h-2.6zm0-4.3h3.7c1.4 0 2.5-1.3 2.5-2.9s-1.1-2.9-2.5-2.9h-3.7v5.8z"/><path d="M22.3 24.5c1.2.3 2.5.5 3.9.5 1.3 0 2.6-.2 3.9-.5l1.2 3.8h5.4L29.3 6.7H23l-7.4 21.7H21l1.3-3.9zm1.3-4.1c.8.2 1.7.3 2.6.3s1.7-.1 2.6-.3l-2.6-8-2.6 8z" fill-rule="evenodd" clip-rule="evenodd" fill="#071f32"/><path class="st0" d="M78.6 11.1c2.2 0 3 1.2 3.8 2.2l4.1-2.2c-.7-1.4-2.7-4.9-7.9-4.9-3.7 0-7.3 2.3-7.3 6.6 0 5.1 4.9 6.1 6.4 6.6s4.5.9 4.5 2.8c0 1.3-1.3 1.8-3.1 1.8-2 0-3.5-1.1-4.5-2.7l-4.2 2.2c.3.9 2.8 5.4 8.7 5.4 4.6 0 8-2.4 8-6.7 0-3.3-1.8-5.2-6.1-6.5-3.4-1-4.7-1.6-4.7-3 0-1 1-1.6 2.3-1.6"/></svg>