<svg class="rheader-logo-paris-svg" xmlns="http://www.w3.org/2000/svg" width="179.3" height="35.2" viewBox="0 0 179.3 35.2"><path d="M.5.1H12V0c6 .2 11.3 5.3 11.3 11.6C23.3 18 18 23.1 12 23.3v-.1H6v10.9h.2H0v.2V.1h.5zm5.5 17h5.8c3 0 5.4-2.5 5.4-5.5s-2.4-5.5-5.4-5.5H6v11zM52 .1h5.6l.2-.1v.1h.2v.2l11.2 33.8H69v.2l.1.2H69v.5h.1l-.2.1V35h-5.4l-.2.1V35H63v-.7L60.3 26H49.4L47 34.4v.7h-.5v.1l-.2-.1h-5.4v.1l-.2-.1H40v-.5h-.1l.1-.3v-.2h.4L52 .3V.1h-.3V0l.3.1zm-.5 20h6.7L54.8 10l-3.3 10.1zM87.5.1H99V0c6 .2 11.4 5.3 11.4 11.6 0 4.5-2.5 8.3-6.1 10.3l.4.7.2.3 5.6 11.2h.6-7.1v.3l-5.3-11.3H93v11h.2H87v.2V.1h.5zm5.5 17h5.9c3 0 5.4-2.5 5.4-5.5s-2.4-5.5-5.4-5.5H93v11zM130.8.1h6.3v34.1H130v.1V.1h.8zM159 29v-.8h8.8c3 0 5.3-2.3 5.3-5.3 0-2.9-2.1-5.1-5.1-5.2v5.6h-.2.2v.1c-7-.2-11.3-5.3-11.3-11.6C156.7 5.3 161 .2 168 0h6v6.1h-6.2c-3 0-5.1 2.5-5.1 5.4s2.3 5.3 5.3 5.4V11h-.2.2v.2c6 .2 11.3 5.3 11.3 11.6S174 34.3 168 34.4h-9"/></svg>