<svg xmlns="http://www.w3.org/2000/svg" xmlns:xlink="http://www.w3.org/1999/xlink" width="350" height="402.8" viewBox="0 0 350 402.8"><defs><path id="a" d="M346 336H4c-2.2 0-4-3-4-6.7V6.7C0 3 1.8 0 4 0h342c2.2 0 4 3 4 6.7v322.6c0 3.7-1.8 6.7-4 6.7z"/></defs><clipPath id="b"><use xlink:href="#a" overflow="visible"/></clipPath><g clip-path="url(#b)"><path fill="#F5BE41" d="M315.6 187.4c-3.6-.9-7.5 3.3-8.4 6.9l-1.3 5.4.2-17.9c0-3.6 1.9-6.6-1.8-6.6-1.2 0-2.4.3-3.4.9l-.1-1.5c.1-3.7 1.3-7.7-2.4-7.8-3.7-.1-6.6 6.4-6.6 10.2 0 0-1.6 13.2-1.8 16-.5 6.4-1.7 11.4-2.5 14.1-2.2-4.3-6.3-8-9.1-11.6-2.5-3.1-5.4-8.1-6.8-9.9-2.2-2.8-4.7-7.9-5.5-7.9-4.6 0-4.5 2.6-4.3 7.2.3 7.6 1.9 10.8 6.1 16.1.2.2.2.3.4.6 2.1 2.8 5.1 8.7 4.9 12-.2 3.3-7.4 22.7-11.5 25.7s-13.8-2.3-16-5.2c-1.1-1.5-1.4-2.4-1.5-4-.5-5.6-1.4-9.4-1.9-12.2-.2-1 .2-3.7.2-5.9-.1-4.3-.8-8.3-1.7-12.7-1-4.7-2.7-8.7-7.4-7.6-4.7 1-5.4 5.6-5.2 9.7.2 4.2-.1 6.6 0 10.1.1 3.2-1.7 7.7-1.3 10.1.3 1.6.6 5.3.6 9.1-.1 1.2-.2 2.6-.1 3.9-.1 2.5.2 4.6.8 6.5 1.4 7.6 4.2 14.5 4.2 14.5s3.9 14.4 4.7 20.3c1.1 8.4 3.8 126.8 3.8 126.8l44.4-.9s-3.5-111.8-1.7-123.6c.6-4.2 4.2-18.8 7.4-24.8 3.3-6 17.8-22.8 17.8-22.8.6-.7 1.3-2.2 1.6-3.1l6.5-30.1c.7-3.5 2.4-9.1-1.3-10z"/><path fill="#F7BF43" d="M276 140.2c0-14.2-11.6-25.6-25.7-25.6-14.2 0-25.6 11.6-25.6 25.7 0 8.3 10 21.6 10 22.3 0 8.7 7.1 15.7 15.8 15.7 8.7 0 15.7-7.1 15.7-15.8-.1-.6 9.8-14 9.8-22.3"/><path fill="#D1D3D4" d="M264.9 177.5l-29.3.1c-1.9 0-3.4-1.7-3.5-3.6 0-1.9 1.5-3.6 3.4-3.6l29.3-.1c1.9 0 3.4 1.7 3.5 3.6.1 1.9-1.5 3.6-3.4 3.6"/><path fill="#D1D3D4" d="M260.3 181.4l-19.9.1c-1.3 0-2.3-1.2-2.4-2.6 0-1.4 1-2.6 2.3-2.6l19.9-.1c1.3 0 2.3 1.2 2.3 2.6.2 1.4-.9 2.6-2.2 2.6"/><path fill="#D1D3D4" d="M260.4 186l-19.9.1c-1.3 0-2.3-1.2-2.3-2.6 0-1.4 1-2.6 2.3-2.6l19.9-.1c1.3 0 2.3 1.2 2.3 2.6 0 1.4-1.1 2.6-2.3 2.6"/><path fill="#D1D3D4" d="M260.4 191.2l-19.9.1c-1.3 0-2.3-1.2-2.4-2.6 0-1.4 1-2.6 2.3-2.6l19.9-.1c1.3 0 2.3 1.2 2.3 2.6.1 1.4-.9 2.6-2.2 2.6"/><path fill="#D1D3D4" d="M260.3 196.4l-19.9.1c-1.3 0-2.3-1.2-2.3-2.6 0-1.4 1-2.6 2.3-2.6l19.9-.1c1.3 0 2.3 1.2 2.3 2.6.1 1.4-1 2.6-2.3 2.6"/><path fill="#D1D3D4" d="M259 197.5l-2.8 4.1h-11.1l-3-4.1-.1-23.8 17-.1z"/><g fill="#F7BF43" stroke="#F7BF43" stroke-width="1.092" stroke-miterlimit="10"><path d="M232.2 112.5l-7.4-11.5M218 134.2l-13-1.4M268.4 113.3l7.6-10.5M282.9 136.9l15 .1"/></g></g></svg>