<svg xmlns="http://www.w3.org/2000/svg" xmlns:xlink="http://www.w3.org/1999/xlink" width="118.3" height="312" viewBox="0 0 118.3 312"><defs><path id="a" d="M-43 0h160v312H-43z"/></defs><clipPath id="b"><use xlink:href="#a" overflow="visible"/></clipPath><g clip-path="url(#b)"><path d="M115.9 106.8c-3.8-1-7.9 3.4-8.9 7.3l-1.4 5.8.2-18.9c0-3.9 2-7-1.9-7-1.3 0-2.5.4-3.6 1l-.1-1.5c.1-4 1.4-8.2-2.6-8.3-3.9-.1-7 6.8-7 10.7 0 0-1.7 13.9-1.9 17-.5 6.8-1.8 12.1-2.7 14.9-2.3-4.6-6.6-8.4-9.6-12.3-2.6-3.3-5.7-8.6-7.2-10.5-2.4-3-5-8.4-5.8-8.4-4.8 0-4.8 2.7-4.6 7.6.3 8 2.1 11.5 6.4 17 .2.2.2.4.4.6 2.2 3 5.4 9.2 5.2 12.7-.2 3.5-7.9 24-12.2 27.2-4.3 3.2-14.6-2.4-16.9-5.5-1.2-1.6-1.4-2.5-1.6-4.2-.5-5.9-1.5-9.9-2-12.9-.2-1.1.2-4 .2-6.3-.1-4.5-.9-8.8-1.8-13.4-1.1-5-2.9-9.2-7.9-8.1-5 1.1-5.7 5.9-5.5 10.3.2 4.5-.1 7 0 10.7.1 3.4-1.8 8.2-1.3 10.7.3 1.7.6 5.6.6 9.6-.1 1.3-.2 2.7-.1 4.1-.1 2.7.2 4.9.8 6.9 1.5 8 4.4 15.4 4.4 15.4s4.1 15.2 5 21.5c1.2 8.9 4 134.3 4 134.3l47-.9S79.8 215.5 81.7 203c.7-4.4 4.4-19.9 7.9-26.3 3.5-6.3 18.9-24.1 18.9-24.1.6-.8 1.4-2.4 1.7-3.3l6.9-31.9c.9-3.7 2.7-9.6-1.2-10.6z" fill="#3DC4DE"/><path d="M73.9 56.9c0-15-12.2-27.1-27.3-27.1-15 0-27.2 12.2-27.1 27.3 0 8.8 10.6 22.9 10.6 23.6 0 9.2 7.5 16.6 16.7 16.6s16.6-7.5 16.6-16.7c0-.8 10.5-14.9 10.5-23.7" fill="#3DC4DE"/><path d="M62.2 96.3l-31 .1c-2 0-3.7-1.8-3.7-3.8 0-2 1.6-3.8 3.6-3.8l31-.1c2 0 3.6 1.8 3.7 3.8.1 2.1-1.5 3.8-3.6 3.8" fill="#D2D3D4"/><path d="M57.4 100.5l-21.1.1c-1.4 0-2.5-1.2-2.5-2.8 0-1.5 1.1-2.8 2.5-2.8h21.1c1.4 0 2.5 1.2 2.5 2.7-.1 1.5-1.2 2.8-2.5 2.8" fill="#D2D3D4"/><path d="M57.4 105.3l-21.1.1c-1.4 0-2.5-1.2-2.5-2.7 0-1.5 1.1-2.8 2.5-2.8l21.1-.1c1.4 0 2.5 1.2 2.5 2.8 0 1.5-1.1 2.7-2.5 2.7" fill="#D2D3D4"/><path d="M57.4 110.8l-21.1.1c-1.4 0-2.5-1.2-2.5-2.7 0-1.5 1.1-2.8 2.5-2.8l21.1-.1c1.4 0 2.5 1.2 2.5 2.7 0 1.6-1.1 2.8-2.5 2.8" fill="#D2D3D4"/><path d="M57.3 116.3l-21.1.1c-1.4 0-2.5-1.2-2.5-2.8 0-1.5 1.1-2.8 2.5-2.8l21.1-.1c1.4 0 2.5 1.2 2.5 2.7 0 1.7-1.1 2.9-2.5 2.9" fill="#D2D3D4"/><path fill="#D2D3D4" d="M56 117.5l-3 4.4H41.2l-3.1-4.3-.1-25.3 17.9-.1z"/><g fill="#3DC4DE" stroke="#3DC4DE" stroke-width=".571" stroke-miterlimit="10"><path d="M40.6 23.3L38.9 8.9M16.7 40.6L3.5 33.5M73.3 33.3L85 20.8M82.3 61.3l15.3 4M2 70.4l12.3-3.8"/></g></g></svg>