<svg xmlns="http://www.w3.org/2000/svg" xmlns:xlink="http://www.w3.org/1999/xlink" width="98.5" height="246.2" viewBox="0 0 98.5 246.2"><defs><path id="a" d="M-46.5-45.8h160v292h-160z"/></defs><clipPath id="b"><use xlink:href="#a" overflow="visible"/></clipPath><g clip-path="url(#b)"><path d="M96.5 83c-3.2-.8-6.7 2.9-7.5 6.2L87.8 94l.2-16c0-3.3 1.7-5.9-1.6-5.9-1.1 0-2.1.3-3 .8l-.1-1.3c.1-3.3 1.2-6.9-2.2-7-3.3-.1-5.9 5.8-6 9.1 0 0-1.4 11.8-1.6 14.4-.4 5.7-1.5 10.3-2.2 12.7-2-3.9-5.6-7.2-8.1-10.4-2.2-2.8-4.8-7.3-6.1-8.9-2-2.5-4.2-7.1-5-7.1-4.1 0-4.1 2.3-3.9 6.4.3 6.8 1.7 9.7 5.5 14.4.1.2.2.3.4.5 1.9 2.5 4.5 7.8 4.4 10.8-.2 2.9-6.7 20.4-10.3 23-3.7 2.7-12.3-2-14.3-4.7-1-1.3-1.2-2.1-1.4-3.6-.5-5-1.3-8.4-1.7-10.9-.2-.9.2-3.4.1-5.3-.1-3.8-.7-7.5-1.6-11.4-.9-4.2-2.4-7.8-6.7-6.9-4.2.9-4.8 5-4.7 8.7.2 3.8-.1 5.9 0 9.1.1 2.9-1.5 6.9-1.1 9 .3 1.4.5 4.8.5 8.2-.1 1.1-.1 2.3-.1 3.5-.1 2.3.2 4.2.7 5.9 1.3 6.8 3.7 13 3.7 13s3.5 12.9 4.2 18.2c1 7.6 3.4 113.8 3.4 113.8l39.8-.8S65.9 175 67.5 164.4c.6-3.7 3.7-16.9 6.7-22.3 2.9-5.4 16-20.5 16-20.5.5-.7 1.2-2 1.4-2.8l5.8-27c.9-3 2.4-8-.9-8.8z" fill="#E55852"/><path d="M60.9 40.6c0-12.7-10.4-23-23.1-23-12.7 0-23 10.4-23 23.1 0 7.5 9 19.4 9 20 0 7.8 6.4 14.1 14.1 14.1 7.8 0 14.1-6.4 14.1-14.1 0-.6 8.9-12.6 8.9-20.1" fill="#F6BF41"/><path d="M51 74.1l-26.3.1c-1.7 0-3.1-1.5-3.1-3.2 0-1.7 1.4-3.2 3.1-3.2l26.3-.2c1.7 0 3.1 1.5 3.1 3.2 0 1.8-1.4 3.3-3.1 3.3" fill="#D2D3D4"/><path d="M46.9 77.6H29c-1.2 0-2.1-1.1-2.1-2.3 0-1.3.9-2.3 2.1-2.3h17.9c1.2 0 2.1 1.1 2.1 2.3 0 1.2-.9 2.3-2.1 2.3" fill="#D2D3D4"/><path d="M46.9 81.7l-17.9.1c-1.2 0-2.1-1.1-2.1-2.3 0-1.3.9-2.3 2.1-2.3h17.9c1.2 0 2.1 1.1 2.1 2.3 0 1.1-.9 2.2-2.1 2.2" fill="#D2D3D4"/><path d="M46.9 86.3H29c-1.2 0-2.1-1.1-2.1-2.3 0-1.3.9-2.3 2.1-2.3h17.9c1.2 0 2.1 1.1 2.1 2.3 0 1.3-.9 2.3-2.1 2.3" fill="#D2D3D4"/><path d="M46.9 91H29c-1.2 0-2.1-1.1-2.1-2.3 0-1.3.9-2.3 2.1-2.3h17.9c1.2 0 2.1 1.1 2.1 2.3 0 1.2-1 2.3-2.1 2.3" fill="#D2D3D4"/><path fill="#D2D3D4" d="M45.7 92l-2.5 3.7h-10L30.6 92l-.1-21.4h15.2z"/><g fill="#F6BF41" stroke="#F6BF41" stroke-width=".841" stroke-miterlimit="10"><path d="M32.7 12.2L31.3 0M12.4 26.9L1.3 20.8M60.4 20.7l9.9-10.6M68 44.4l13 3.3M0 52.1l10.4-3.3"/></g></g></svg>