<svg xmlns="http://www.w3.org/2000/svg" width="112.9" height="236" viewBox="0 0 112.9 236"><path d="M110.7 86.7c-3.6-.9-7.5 3.3-8.4 6.9L101 99l.2-17.9c0-3.6 1.9-6.6-1.8-6.6-1.2 0-2.4.3-3.4.9l-.1-1.5c.1-3.7 1.3-7.7-2.4-7.8-3.7-.1-6.6 6.4-6.6 10.2 0 0-1.6 13.2-1.8 16-.5 6.4-1.7 11.4-2.5 14.1-2.2-4.3-6.3-8-9.1-11.6-2.5-3.1-5.4-8.1-6.8-9.9-2.2-2.8-4.7-7.9-5.5-7.9-4.6 0-4.5 2.6-4.3 7.2.3 7.6 1.9 10.8 6.1 16.1.2.2.2.3.4.6 2.1 2.8 5.1 8.7 4.9 12-.2 3.3-7.4 22.7-11.5 25.7s-13.8-2.3-16-5.2c-1.1-1.5-1.4-2.4-1.5-4-.5-5.6-1.4-9.4-1.9-12.2-.2-1 .2-3.7.2-5.9-.1-4.3-.8-8.3-1.7-12.7-1-4.7-2.7-8.7-7.4-7.6-4.7 1-5.4 5.6-5.2 9.7.2 4.2-.1 6.6 0 10.1.1 3.2-1.7 7.7-1.3 10.1.3 1.6.6 5.3.6 9.1-.1 1.2-.2 2.6-.1 3.9-.1 2.5.2 4.6.8 6.5 1.4 7.6 4.2 14.5 4.2 14.5s3.9 14.4 4.7 20.3C33.3 183.6 36 302 36 302l44.4-.9s-3.5-111.8-1.7-123.6c.6-4.2 4.2-18.8 7.4-24.8 3.3-6 17.8-22.8 17.8-22.8.6-.7 1.3-2.2 1.6-3.1l6.5-30.1c.7-3.5 2.3-9.1-1.3-10z" fill="#F4BD40"/><path d="M71 39.5c0-14.2-11.6-25.6-25.7-25.6-14.2 0-25.6 11.6-25.6 25.7 0 8.3 10 21.6 10 22.3 0 8.7 7.1 15.7 15.8 15.7 8.7 0 15.7-7.1 15.7-15.8-.1-.6 9.8-14 9.8-22.3" fill="#F6BF41"/><path d="M60 76.8l-29.3.1c-1.9 0-3.4-1.7-3.5-3.6 0-1.9 1.5-3.6 3.4-3.6H60c1.9 0 3.4 1.7 3.5 3.6-.1 1.8-1.6 3.5-3.5 3.5" fill="#D2D3D4"/><path d="M55.4 80.7l-19.9.1c-1.3 0-2.3-1.2-2.4-2.6 0-1.4 1-2.6 2.3-2.6l19.9-.1c1.3 0 2.3 1.2 2.3 2.6.1 1.4-.9 2.6-2.2 2.6" fill="#D2D3D4"/><path d="M55.4 85.3l-19.9.1c-1.3 0-2.3-1.2-2.3-2.6 0-1.4 1-2.6 2.3-2.6l19.9-.1c1.3 0 2.3 1.2 2.3 2.6 0 1.4-1 2.6-2.3 2.6" fill="#D2D3D4"/><path d="M55.4 90.5l-19.9.1c-1.3 0-2.3-1.2-2.4-2.6 0-1.4 1-2.6 2.3-2.6l19.9-.1c1.3 0 2.3 1.2 2.3 2.6.2 1.4-.9 2.6-2.2 2.6" fill="#D2D3D4"/><path d="M55.4 95.7l-19.9.1c-1.3 0-2.3-1.2-2.3-2.6 0-1.4 1-2.6 2.3-2.6l19.9-.1c1.3 0 2.3 1.2 2.3 2.6 0 1.4-1 2.6-2.3 2.6" fill="#D2D3D4"/><path fill="#D2D3D4" d="M54.1 96.8l-2.8 4.1H40.1l-2.9-4.1-.1-23.8 16.9-.1z"/><g fill="#F6BF41" stroke="#F6BF41" stroke-width="1.092" stroke-miterlimit="10"><path d="M27.3 11.8L19.9.3M13.1 33.5l-13-1.4M63.4 12.6L71 2M78 36.2l15 .1"/></g></svg>