<svg xmlns="http://www.w3.org/2000/svg" viewBox="0 0 25 25"><path d="M-58.527 34.497l-.142-.14L-22.881-1.84l.142.141zm2.582.036l-.143-.14L-20.3-1.804l.142.141zm2.537-.067l-.142-.141L-17.762-1.87l.142.14zm2.511-.035l-.143-.14 35.788-36.196.142.141zm2.434-.024l-.143-.14 35.788-36.195.142.14zm2.581.036l-.142-.14 35.788-36.195.142.14zm2.538-.067l-.143-.14L-7.699-1.96l.142.14zm2.51-.035l-.142-.14L-5.19-1.994l.143.14zm2.467.004l-.142-.14L-2.721-1.992l.142.141zm2.581.035l-.142-.14L-.14-1.955l.142.141zm2.538-.067l-.142-.14L2.398-2.022l.142.14zm2.478.08l-.142-.14L4.876-1.942l.142.14zm2.537-.067l-.142-.14L7.413-2.01l.142.14zm2.511-.035l-.143-.14L9.923-2.044l.142.14zm2.467.004l-.142-.14L12.39-2.042l.143.14zm2.537-.068l-.142-.14L14.928-2.108l.142.14zm2.582.036l-.142-.14L17.509-2.072l.143.14zm2.537-.067l-.142-.14L20.047-2.14l.142.14zm2.479.08l-.143-.141L22.525-2.06l.142.14zm2.537-.068l-.142-.14L25.063-2.129l.142.141zm2.51-.034l-.142-.141L27.573-2.162l.142.14zm2.467.003l-.142-.14L30.04-2.158l.142.14zm2.582.036l-.142-.14L32.62-2.124l.143.141zm2.466-.138l-.142-.14L35.088-2.26l.142.14zm2.582.036l-.142-.14L37.669-2.224l.143.14zm2.434-.023l-.142-.141L40.103-2.248l.143.14zm2.582.035l-.143-.14L42.685-2.212l.142.14zm2.537-.067l-.143-.14L45.222-2.28l.142.14zm2.51-.035l-.142-.14L47.733-2.314l.142.14zm2.467.004l-.142-.14L50.2-2.31l.142.14zm2.582.036l-.143-.14L52.781-2.276l.142.141zm2.537-.067l-.142-.141L55.319-2.342l.142.14zm2.478.079l-.142-.14L57.797-2.262l.142.14zm2.538-.067l-.143-.14L60.334-2.33l.142.14zm2.51-.035l-.142-.14L62.845-2.364l.142.14zm2.467.004l-.142-.14L65.312-2.362l.142.141z" opacity=".28" fill="#CDCCCC"/></svg>