<svg xmlns="http://www.w3.org/2000/svg" viewBox="0 0 25 25"><g opacity=".28" fill="#CDCCCC"><path d="M-58.527 34.497l-.142-.14L-22.88-1.84l.14.142zM-55.945 34.533l-.143-.14L-20.3-1.804l.142.14zM-53.408 34.466l-.142-.14L-17.762-1.87l.142.14zM-50.897 34.43l-.143-.14 35.788-36.195.142.14zM-48.463 34.407l-.143-.14 35.788-36.195.142.14zM-45.882 34.443l-.142-.14 35.788-36.195.142.14zM-43.344 34.376l-.143-.14L-7.7-1.96l.143.14zM-40.834 34.34l-.142-.14L-5.19-1.993l.144.14zM-38.367 34.345l-.142-.14L-2.72-1.992l.14.14zM-35.786 34.38l-.142-.14L-.14-1.955l.142.14zM-33.248 34.313l-.142-.14L2.398-2.022l.142.14zM-30.77 34.393l-.142-.14L4.876-1.942l.142.14zM-28.233 34.326l-.142-.14L7.413-2.01l.142.14zM-25.722 34.29l-.143-.14L9.923-2.043l.142.14zM-23.255 34.295l-.142-.14L12.39-2.042l.143.14zM-20.718 34.227l-.142-.14L14.928-2.108l.142.14zM-18.136 34.263l-.142-.14L17.51-2.072l.142.14zM-15.6 34.196l-.14-.14L20.046-2.14l.142.14zM-13.12 34.276l-.143-.14L22.525-2.06l.142.14zM-10.583 34.208l-.142-.14L25.063-2.13l.142.14zM-8.073 34.174l-.142-.14L27.573-2.163l.142.14zM-5.606 34.177l-.142-.14L30.04-2.158l.142.14zM-3.024 34.213l-.142-.14L32.62-2.124l.144.14zM-.558 34.075l-.142-.14L35.088-2.26l.142.14zM2.024 34.11l-.142-.14L37.67-2.223l.142.14zM4.458 34.088l-.142-.14L40.103-2.25l.143.14zM7.04 34.123l-.143-.14L42.685-2.212l.142.14zM9.577 34.056l-.143-.14L45.222-2.28l.142.14zM12.087 34.02l-.142-.14L47.733-2.313l.142.14zM14.554 34.025l-.142-.14L50.2-2.31l.142.14zM17.136 34.06l-.143-.14L52.78-2.275l.143.14zM19.673 33.994l-.142-.14L55.32-2.343l.14.14zM22.15 34.073l-.14-.14L57.796-2.262l.142.14zM24.69 34.006l-.144-.14L60.334-2.33l.142.14zM27.2 33.97l-.143-.14L62.845-2.363l.142.14zM29.666 33.975l-.142-.14L65.312-2.362l.142.14z"/></g></svg>