<svg xmlns="http://www.w3.org/2000/svg" viewBox="0 0 25 25"><g opacity=".28" fill="#CDCCCC"><path d="M-58.527 34.497l-.142-.14L-22.881-1.84l.142.141zM-55.945 34.533l-.143-.14L-20.3-1.804l.142.141zM-53.408 34.466l-.142-.141L-17.762-1.87l.142.14zM-50.897 34.431l-.143-.14 35.788-36.196.142.141zM-48.463 34.407l-.143-.14 35.788-36.195.142.14zM-45.882 34.443l-.142-.14 35.788-36.195.142.14zM-43.344 34.376l-.143-.14L-7.699-1.96l.142.14zM-40.834 34.341l-.142-.14L-5.19-1.994l.143.14zM-38.367 34.345l-.142-.14L-2.721-1.992l.142.141zM-35.786 34.38l-.142-.14L-.14-1.955l.142.141zM-33.248 34.313l-.142-.14L2.398-2.022l.142.14zM-30.77 34.393l-.142-.14L4.876-1.942l.142.14zM-28.233 34.326l-.142-.14L7.413-2.01l.142.14zM-25.722 34.291l-.143-.14L9.923-2.044l.142.14zM-23.255 34.295l-.142-.14L12.39-2.042l.143.14zM-20.718 34.227l-.142-.14L14.928-2.108l.142.14zM-18.136 34.263l-.142-.14L17.509-2.072l.143.14zM-15.599 34.196l-.142-.14L20.047-2.14l.142.14zM-13.12 34.276l-.143-.141L22.525-2.06l.142.14zM-10.583 34.208l-.142-.14L25.063-2.129l.142.141zM-8.073 34.174l-.142-.141L27.573-2.162l.142.14zM-5.606 34.177l-.142-.14L30.04-2.158l.142.14zM-3.024 34.213l-.142-.14L32.62-2.124l.143.141zM-.558 34.075l-.142-.14L35.088-2.26l.142.14zM2.024 34.111l-.142-.14L37.669-2.224l.143.14zM4.458 34.088l-.142-.141L40.103-2.248l.143.14zM7.04 34.123l-.143-.14L42.685-2.212l.142.14zM9.577 34.056l-.143-.14L45.222-2.28l.142.14zM12.087 34.021l-.142-.14L47.733-2.314l.142.14zM14.554 34.025l-.142-.14L50.2-2.31l.142.14zM17.136 34.061l-.143-.14L52.781-2.276l.142.141zM19.673 33.994l-.142-.141L55.319-2.342l.142.14zM22.151 34.073l-.142-.14L57.797-2.262l.142.14zM24.689 34.006l-.143-.14L60.334-2.33l.142.14zM27.199 33.971l-.142-.14L62.845-2.364l.142.14zM29.666 33.975l-.142-.14L65.312-2.362l.142.141z"/></g></svg>