<?xml version="1.0" encoding="utf-8"?>
<!-- Generator: Adobe Illustrator 18.1.1, SVG Export Plug-In . SVG Version: 6.00 Build 0)  -->
<svg version="1.1" id="Calque_1" xmlns="http://www.w3.org/2000/svg" xmlns:xlink="http://www.w3.org/1999/xlink" x="0px" y="0px"
	 viewBox="0 0 25 25" enable-background="new 0 0 25 25" xml:space="preserve">
<g opacity="0.15">
	<path d="M19.1,12.9c0-5.2-4.2-9.4-9.4-9.4s-9.4,4.2-9.4,9.4s4.2,9.4,9.4,9.4S19.1,18.1,19.1,12.9z M9.7,19.9c-3.9,0-7-3.2-7-7
		s3.2-7,7-7s7,3.2,7,7S13.6,19.9,9.7,19.9z"/>
	<path d="M24.7,24.6L19,18.8c-0.9,1.3-2,2.5-3.3,3.3l5.7,5.7c0.9,0.9,2.4,0.9,3.3,0C25.6,26.9,25.6,25.5,24.7,24.6z"/>
	<path d="M4.3,13.7h1.6C5.8,10.6,7.7,9,8.8,9V7.4C6.7,7.4,4.3,9.5,4.3,13.7z"/>
</g>
</svg>
