<?xml version="1.0" encoding="utf-8"?>
<!-- Generator: Adobe Illustrator 18.1.1, SVG Export Plug-In . SVG Version: 6.00 Build 0)  -->
<svg version="1.1" id="Calque_1" xmlns="http://www.w3.org/2000/svg" xmlns:xlink="http://www.w3.org/1999/xlink" x="0px" y="0px"
	 viewBox="0 0 25 25" enable-background="new 0 0 25 25" xml:space="preserve">
<g opacity="0.28">
	
		<rect x="-40.8" y="-9.2" transform="matrix(-0.7111 -0.7031 0.7031 -0.7111 -81.0711 -0.7315)" fill="#CDCCCC" width="0.2" height="50.9"/>
	
		<rect x="-38.3" y="-9.2" transform="matrix(-0.7111 -0.7031 0.7031 -0.7111 -76.712 1.0622)" fill="#CDCCCC" width="0.2" height="50.9"/>
	
		<rect x="-35.8" y="-9.2" transform="matrix(-0.7111 -0.7031 0.7031 -0.7111 -72.3967 2.7525)" fill="#CDCCCC" width="0.2" height="50.9"/>
	
		<rect x="-33.2" y="-9.2" transform="matrix(-0.7111 -0.7031 0.7031 -0.7111 -68.0375 4.546)" fill="#CDCCCC" width="0.2" height="50.9"/>
	
		<rect x="-30.7" y="-9.2" transform="matrix(-0.7111 -0.7031 0.7031 -0.7111 -63.8257 6.2802)" fill="#CDCCCC" width="0.2" height="50.9"/>
	
		<rect x="-28.2" y="-9.2" transform="matrix(-0.7111 -0.7031 0.7031 -0.7111 -59.4665 8.0739)" fill="#CDCCCC" width="0.2" height="50.9"/>
	
		<rect x="-25.7" y="-9.2" transform="matrix(-0.7111 -0.7031 0.7031 -0.7111 -55.1512 9.7641)" fill="#CDCCCC" width="0.2" height="50.9"/>
	
		<rect x="-23.1" y="-9.2" transform="matrix(-0.7111 -0.7031 0.7031 -0.7111 -50.792 11.5577)" fill="#CDCCCC" width="0.2" height="50.9"/>
	
		<rect x="-20.6" y="-9.3" transform="matrix(-0.7111 -0.7031 0.7031 -0.7111 -46.4768 13.248)" fill="#CDCCCC" width="0.2" height="50.9"/>
	
		<rect x="-18.1" y="-9.3" transform="matrix(-0.7111 -0.7031 0.7031 -0.7111 -42.1176 15.0416)" fill="#CDCCCC" width="0.2" height="50.9"/>
	
		<rect x="-15.6" y="-9.3" transform="matrix(-0.7111 -0.7031 0.7031 -0.7111 -37.8023 16.7319)" fill="#CDCCCC" width="0.2" height="50.9"/>
	
		<rect x="-13.1" y="-9.3" transform="matrix(-0.7111 -0.7031 0.7031 -0.7111 -33.5466 18.5695)" fill="#CDCCCC" width="0.2" height="50.9"/>
	
		<rect x="-10.6" y="-9.3" transform="matrix(-0.7111 -0.7031 0.7031 -0.7111 -29.2314 20.2596)" fill="#CDCCCC" width="0.2" height="50.9"/>
	
		<rect x="-8" y="-9.3" transform="matrix(-0.7111 -0.7031 0.7031 -0.7111 -24.8723 22.0533)" fill="#CDCCCC" width="0.2" height="50.9"/>
	
		<rect x="-5.5" y="-9.4" transform="matrix(-0.7111 -0.7031 0.7031 -0.7111 -20.557 23.7435)" fill="#CDCCCC" width="0.2" height="50.9"/>
	
		<rect x="-3" y="-9.4" transform="matrix(-0.7111 -0.7031 0.7031 -0.7111 -16.2417 25.4338)" fill="#CDCCCC" width="0.2" height="50.9"/>
	
		<rect x="-0.5" y="-9.4" transform="matrix(-0.7111 -0.7031 0.7031 -0.7111 -11.8825 27.2273)" fill="#CDCCCC" width="0.2" height="50.9"/>
	
		<rect x="2" y="-9.4" transform="matrix(-0.7111 -0.7031 0.7031 -0.7111 -7.5672 28.9176)" fill="#CDCCCC" width="0.2" height="50.9"/>
	
		<rect x="4.5" y="-9.4" transform="matrix(-0.7111 -0.7031 0.7031 -0.7111 -3.3115 30.7552)" fill="#CDCCCC" width="0.2" height="50.9"/>
	
		<rect x="7" y="-9.4" transform="matrix(-0.7111 -0.7031 0.7031 -0.7111 1.0038 32.4454)" fill="#CDCCCC" width="0.2" height="50.9"/>
	
		<rect x="9.6" y="-9.4" transform="matrix(-0.7111 -0.7031 0.7031 -0.7111 5.363 34.239)" fill="#CDCCCC" width="0.2" height="50.9"/>
	
		<rect x="12.1" y="-9.5" transform="matrix(-0.7111 -0.7031 0.7031 -0.7111 9.6782 35.9293)" fill="#CDCCCC" width="0.2" height="50.9"/>
	
		<rect x="14.6" y="-9.5" transform="matrix(-0.7111 -0.7031 0.7031 -0.7111 14.0374 37.7229)" fill="#CDCCCC" width="0.2" height="50.9"/>
	
		<rect x="17.2" y="-9.5" transform="matrix(-0.7111 -0.7031 0.7031 -0.7111 18.3527 39.4132)" fill="#CDCCCC" width="0.2" height="50.9"/>
	
		<rect x="19.7" y="-9.5" transform="matrix(-0.7111 -0.7031 0.7031 -0.7111 22.7119 41.2068)" fill="#CDCCCC" width="0.2" height="50.9"/>
	
		<rect x="22.2" y="-9.5" transform="matrix(-0.7111 -0.7031 0.7031 -0.7111 26.9236 42.9409)" fill="#CDCCCC" width="0.2" height="50.9"/>
	
		<rect x="24.7" y="-9.5" transform="matrix(-0.7111 -0.7031 0.7031 -0.7111 31.2827 44.7346)" fill="#CDCCCC" width="0.2" height="50.9"/>
	
		<rect x="27.2" y="-9.5" transform="matrix(-0.7111 -0.7031 0.7031 -0.7111 35.598 46.4248)" fill="#CDCCCC" width="0.2" height="50.9"/>
	
		<rect x="29.8" y="-9.5" transform="matrix(-0.7111 -0.7031 0.7031 -0.7111 39.9572 48.2184)" fill="#CDCCCC" width="0.2" height="50.9"/>
	
		<rect x="32.3" y="-9.6" transform="matrix(-0.7111 -0.7031 0.7031 -0.7111 44.2725 49.9087)" fill="#CDCCCC" width="0.2" height="50.9"/>
	
		<rect x="34.8" y="-9.6" transform="matrix(-0.7111 -0.7031 0.7031 -0.7111 48.6316 51.7023)" fill="#CDCCCC" width="0.2" height="50.9"/>
	
		<rect x="37.3" y="-9.6" transform="matrix(-0.7111 -0.7031 0.7031 -0.7111 52.9469 53.3926)" fill="#CDCCCC" width="0.2" height="50.9"/>
	
		<rect x="39.8" y="-9.6" transform="matrix(-0.7111 -0.7031 0.7031 -0.7111 57.2027 55.2301)" fill="#CDCCCC" width="0.2" height="50.9"/>
	
		<rect x="42.3" y="-9.6" transform="matrix(-0.7111 -0.7031 0.7031 -0.7111 61.518 56.9203)" fill="#CDCCCC" width="0.2" height="50.9"/>
	
		<rect x="44.9" y="-9.6" transform="matrix(-0.7111 -0.7031 0.7031 -0.7111 65.8771 58.714)" fill="#CDCCCC" width="0.2" height="50.9"/>
	
		<rect x="47.4" y="-9.7" transform="matrix(-0.7111 -0.7031 0.7031 -0.7111 70.1924 60.4043)" fill="#CDCCCC" width="0.2" height="50.9"/>
</g>
</svg>
