<svg xmlns="http://www.w3.org/2000/svg" viewBox="0 0 41.1 35.1" style="enable-background:new 0 0 41.1 35.1;">
<path d="M37.8,20.8c-0.1,0-0.2,0.1-0.4,0.5c-3.5,7.6-9.8,11.2-16.6,11.2C7.3,32.6,4.2,21.5,4.1,21.2l6.9,1.3
	c0,0.1,2.7,6.1,9.6,6.1c7.3,0,12.4-7.3,12.4-14.9c0-6.8-2.9-10.7-7-13.7L7.3,8.6C7.1,8.7,7.1,9,7.3,9c10.3,2.4,12.1,9.8,11.6,14
	c-0.1,0.6,0.3,0.5,0.7-0.7c1.4-4.2,0.4-10.3-5.2-13.7c0,0,10.4-5.2,10.4-5.2c1.2,1,5.3,3.7,5.3,10.3c0,6.5-3.8,12.5-9.6,12.5
	c-5.8,0-7.8-5.9-7.8-6L0.4,17.6C0.2,17.5,0,17.7,0,17.9C1.1,27.3,8.6,35,19.5,35c9.1,0,15.2-5,17.8-12C38,21.4,37.9,20.8,37.8,20.8"
	/>
</svg>
