<svg version="1.1"
   xmlns="http://www.w3.org/2000/svg" xmlns:xlink="http://www.w3.org/1999/xlink" xmlns:a="http://ns.adobe.com/AdobeSVGViewerExtensions/3.0/"
   x="0px" y="0px" width="179.3px" height="35.2px" viewBox="0 0 179.3 35.2" enable-background="new 0 0 179.3 35.2"
   xml:space="preserve">
<g id="paris">
	<g>
		<path fill="#FFFFFF" d="M0.5,0.1h0.3h5.4h0.3h5.4H12V0c6,0.2,11.3,5.3,11.3,11.6C23.3,18,18,23.1,12,23.3v-0.1h-0.2H6V34v0.1h0.2
			H0.8H0.5H0v0.2V34V0.6V0.3V0.1H0.5z M6,17.1h5.8c3,0,5.4-2.5,5.4-5.5s-2.4-5.5-5.4-5.5H6V17.1z"/>
		<path fill="#FFFFFF" d="M52,0.1h5.6L57.8,0v0.1H58v0.2l11.2,33.8H69v0.2l0.1,0.2H69V35h0.1l-0.2,0.1V35h-5.4l-0.2,0.1V35H63v-0.7
			L60.3,26H49.4L47,34.4v0.7h-0.5v0.1l-0.2-0.1h-5.4v0.1l-0.2-0.1H40v-0.5h-0.1l0.1-0.3v-0.2h0.4L52,0.3V0.1h-0.3V0L52,0.1z
			 M51.5,20.1H52h5.7h0.5L54.8,10L51.5,20.1z"/>
		<path fill="#FFFFFF" d="M87.5,0.1h0.3h5.4h0.3h5.4H99V0c6,0.2,11.4,5.3,11.4,11.6c0,4.5-2.5,8.3-6.1,10.3l0.4,0.7l0.2,0.3
			l5.6,11.2h0.6l0,0h-0.8h-5.7H104v0.3l-5.3-11.3H93V34v0.1h0.2h-5.4h-0.3H87v0.2V34V0.6V0.3V0.1H87.5z M93,17.1h5.9
			c3,0,5.4-2.5,5.4-5.5s-2.4-5.5-5.4-5.5H93V17.1z"/>
		<path fill="#FFFFFF" d="M130.8,0.1h0.3h5.4h0.6v0.1V34v0.2h-0.6h-5.4h-0.3H130v0.1V34V0.6V0.3V0.1H130.8z"/>
		<path fill="#FFFFFF" d="M159,29v-0.3v-0.5h0.6h7.9h0.3c3,0,5.3-2.3,5.3-5.3c0-2.9-2.1-5.1-5.1-5.2v5.1v0.5h-0.2h0.2v0.1
			c-7-0.2-11.3-5.3-11.3-11.6C156.7,5.3,161,0.2,168,0l0,0l0,0h0.1h5.4h0.5v0.1v5.5v0.5h-0.5h-5.4h-0.3c-3,0-5.1,2.5-5.1,5.4
			s2.3,5.3,5.3,5.4v-5.1v-0.3V11h-0.2h0.2v0.2c6,0.2,11.3,5.3,11.3,11.6S174,34.3,168,34.4l0,0h-0.2h-8.2h-0.3H159"/>
	</g>
</g>
</svg>
