<svg class="rheader-logo-paris-svg" xmlns="http://www.w3.org/2000/svg" width="179.3" height="35.2" viewBox="0 0 179.3 35.2">
<path d="M15.8,14.1c0,4.1-3.3,7.4-7.6,7.4H5v6.8H0V6.7h8.2C12.5,6.7,15.8,10,15.8,14.1 M10.8,14.1
	c0-1.6-1.1-2.8-2.6-2.8H5v5.6h3.3C9.7,16.9,10.8,15.7,10.8,14.1"/>
<rect x="61.1" y="6.7" width="5" height="21.7"/>
<path d="M44.7,21.5v6.8h-5V6.7h8.7c4.1,0,7.4,3.3,7.4,7.4c0,2.7-1.5,5.3-3.9,6.4l4.6,7.8h-5.3l-3.9-6.8H44.7z
	 M44.7,17.2h3.7c1.4,0,2.5-1.3,2.5-2.9s-1.1-2.9-2.5-2.9h-3.7V17.2z"/>
<path d="M22.3,24.5c1.2,0.3,2.5,0.5,3.9,0.5c1.3,0,2.6-0.2,3.9-0.5l1.2,3.8h5.4L29.3,6.7H23l-7.4,21.7h5.4L22.3,24.5z
	 M23.6,20.4c0.8,0.2,1.7,0.3,2.6,0.3s1.7-0.1,2.6-0.3l-2.6-8L23.6,20.4z"/>
<path d="M78.6,11.1c2.2,0,3,1.2,3.8,2.2l4.1-2.2c-0.7-1.4-2.7-4.9-7.9-4.9c-3.7,0-7.3,2.3-7.3,6.6
	c0,5.1,4.9,6.1,6.4,6.6c1.5,0.5,4.5,0.9,4.5,2.8c0,1.3-1.3,1.8-3.1,1.8c-2,0-3.5-1.1-4.5-2.7l-4.2,2.2c0.3,0.9,2.8,5.4,8.7,5.4
	c4.6,0,8-2.4,8-6.7c0-3.3-1.8-5.2-6.1-6.5c-3.4-1-4.7-1.6-4.7-3C76.3,11.7,77.3,11.1,78.6,11.1"/>
</svg>
