<svg xmlns="http://www.w3.org/2000/svg" xmlns:xlink="http://www.w3.org/1999/xlink" width="490" height="278" viewBox="0 0 490 278"><switch><g><path fill="#FFF" d="M109.685 43.653l7.087 41.429c.828 4.837 1.482 12.241 8.359 11.063 6.196-1.058 5.397-5.726 4.67-10.497l-7.551-44.144 12.648-2.163 7.988 46.691c1.161 6.793 2.372 18.467-15.879 21.589-11.801 2.018-19.79-2.295-21.839-14.265l-8.131-47.538 12.648-2.165zM169.021 33.503l2.034 11.883-12.817 2.194 2.382 13.924 11.289-1.932 2.034 11.885-11.293 1.93 2.471 14.435 12.988-2.224 2.032 11.884-25.636 4.387-10.95-64.011zM223.18 24.237l2.034 11.885-12.904 2.209 2.337 13.668 11.631-1.99 2.034 11.885-11.633 1.99 4.548 26.571-12.649 2.163-10.951-64.009zM252.299 19.258l26.314 61.38-13.497 2.311-4.222-10.377-12.82 2.194-.446 11.173-12.564 2.149 3.905-66.551 13.33-2.279zm-1.132 27.103l-3.097-9.43-.171.029.295 9.908.205 17.529 8.912-1.523-6.144-16.513zM283.703 79.762l-10.949-64.01 12.649-2.163L296.35 77.6zM305.351 76.063l-10.95-64.01 12.733-2.177c8.066-1.38 22.642-3 25.635 14.488 1.205 7.047-.566 13.554-6.253 18.108l16.103 27.216-13.331 2.279-16.172-27.642-.171.031L318 73.899l-12.649 2.164zm6.404-38.668l2.221-.291c5.772-.989 7.398-5.286 6.497-10.548-.783-4.587-3.631-7.942-9.939-6.514l-1.697.291 2.918 17.062zM364.858 0l2.034 11.885-12.82 2.194 2.383 13.924 11.289-1.931 2.033 11.881-11.289 1.933 2.469 14.433 12.989-2.221 2.032 11.883-25.638 4.388-10.949-64.01zM96.138 136.583l-13.242-17.936a45.702 45.702 0 0 0 10.308-19.514c6.097-24.628-8.925-49.536-33.556-55.633a46.03 46.03 0 0 0-11.539-1.355c-20.443.21-38.953 14.146-44.093 34.911-6.096 24.628 8.927 49.536 33.555 55.633a45.952 45.952 0 0 0 11.542 1.353c6.819-.07 13.408-1.696 19.374-4.564l13.203 17.881a9.013 9.013 0 0 0 14.448-10.776m-47.152-15.478a33.316 33.316 0 0 1-8.306-.979c-17.662-4.373-28.473-22.299-24.102-39.963 3.618-14.61 16.637-24.925 31.659-25.078 2.775-.029 5.567.3 8.304.977 17.662 4.373 28.475 22.301 24.103 39.961-3.619 14.614-16.637 24.929-31.658 25.082"/><path fill="#FFF" d="M444.591 131.079l45.27-6.489-27.41-45.918 15.197-53.016-78.757 11.289 36.441 38.229-317.929 54.662 6.481 39.125-46.188 7.943 28.681 45.136-13.71 53.42 78.41-13.485-37.387-33.794 317.929-54.661z"/><path fill="#F94F4F" d="M166.789 184.963l-2.171 9.206-6.685 1.144 10.287-40.899 6.573-1.124 23.125 35.189-6.845 1.167-5.109-7.962-19.175 3.279zm-5.791-39.097l5.948-3.814 7.133 7.055-5.541.946-7.54-4.187zm11.489 14.862l-4.283 18.122 14.342-2.449-10.059-15.673zM225.645 144.599c9.562-1.632 15.858 2.151 17.269 10.412 1.466 8.582-3.166 14.517-12.728 16.152l-8.745 1.492 1.959 11.467-6.412 1.097-6.501-38.027 15.158-2.593zm-5.188 22.3l8.475-1.45c5.866-1.004 8.754-4.066 7.871-9.229-.854-4.997-4.577-6.822-10.444-5.818l-8.475 1.449 2.573 15.048zM255.074 169.872l-2.172 9.206-6.682 1.14 10.284-40.896 6.574-1.124 23.124 35.186-6.845 1.171-5.107-7.962-19.176 3.279zm5.698-24.234l-4.283 18.121 14.343-2.449-10.06-15.672zM306.456 158.068c-.533.147-1.132.248-1.729.35l-9.021 1.542 1.962 11.463-6.409 1.101-6.503-38.03 15.432-2.638c9.722-1.661 16.128 2.107 17.539 10.366 1.036 6.082-1.053 10.858-5.771 13.676l10.703 11.258-7.28 1.24-8.923-10.328zm-2.712-5.407c5.867-1.004 8.807-4.078 7.925-9.241-.854-4.996-4.632-6.81-10.497-5.807l-9.02 1.539 2.573 15.048 9.019-1.539zM330.537 165.806l-6.502-38.028 6.413-1.095 6.503 38.03zM366.868 124.2l-1.693 6.105c-4.557-1.792-8.861-2.118-11.74-1.626-3.748.64-5.954 2.473-5.518 5.026 1.419 8.312 21.198.343 23.483 14.045 1.158 6.791-4.102 11.997-12.467 13.424-5.978 1.023-12.046-.454-16.571-3.373l1.825-6.016c4.526 2.919 9.749 4.039 13.819 3.342 4.458-.764 6.832-2.9 6.33-5.834-1.445-8.474-21.176-.236-23.488-13.764-1.114-6.52 3.787-11.552 12.046-12.962 4.943-.848 10.044-.098 13.974 1.633M385.425 128.689c-.964-6.937 2.657-11.581 9.396-12.732 6.517-1.112 11.4 1.293 12.412 7.214 1.468 8.586-7.051 10.433-5.795 17.765l-4.783.817c-1.492-8.744 6.051-10.091 4.927-16.661-.539-3.153-3.027-4.293-6.396-3.718-3.529.603-5.334 2.812-4.863 6.534l-4.898.781zm18.569 21.317c.362 2.116-.843 3.888-2.801 4.226-1.957.333-3.681-.938-4.043-3.055-.353-2.062.86-3.783 2.818-4.117 1.956-.337 3.674.883 4.026 2.946"/><g opacity=".3"><defs><path id="a" d="M133.691 222.858h37.387v39.119h-37.387z"/></defs><clipPath id="b"><use xlink:href="#a" overflow="visible"/></clipPath><path clip-path="url(#b)" fill="#FFF" d="M164.602 222.865l6.476 39.11-37.387-33.794z"/></g><g opacity=".3"><defs><path id="c" d="M398.891 36.953h36.441V80.2h-36.441z"/></defs><clipPath id="d"><use xlink:href="#c" overflow="visible"/></clipPath><path clip-path="url(#d)" fill="#FFF" d="M435.332 75.174l-36.441-38.229 7.164 43.263z"/></g></g></switch></svg>