<svg version="1.1"
	 xmlns="http://www.w3.org/2000/svg" xmlns:xlink="http://www.w3.org/1999/xlink" xmlns:a="http://ns.adobe.com/AdobeSVGViewerExtensions/3.0/"
	 x="0px" y="0px" width="350px" height="402.8px" viewBox="0 0 350 402.8" enable-background="new 0 0 350 402.8"
	 xml:space="preserve">
<defs>
</defs>
<g>
	<defs>
		<path id="SVGID_1_" d="M346,336H4c-2.2,0-4-3-4-6.7V6.7C0,3,1.8,0,4,0h342c2.2,0,4,3,4,6.7v322.6C350,333,348.2,336,346,336z"/>
	</defs>
	<clipPath id="SVGID_2_">
		<use xlink:href="#SVGID_1_"  overflow="visible"/>
	</clipPath>
	<g clip-path="url(#SVGID_2_)">
		<path fill="#F5BE41" d="M315.6,187.4c-3.6-0.9-7.5,3.3-8.4,6.9l-1.3,5.4l0.2-17.9c0-3.6,1.9-6.6-1.8-6.6c-1.2,0-2.4,0.3-3.4,0.9
			l-0.1-1.5c0.1-3.7,1.3-7.7-2.4-7.8c-3.7-0.1-6.6,6.4-6.6,10.2c0,0-1.6,13.2-1.8,16c-0.5,6.4-1.7,11.4-2.5,14.1
			c-2.2-4.3-6.3-8-9.1-11.6c-2.5-3.1-5.4-8.1-6.8-9.9c-2.2-2.8-4.7-7.9-5.5-7.9c-4.6,0-4.5,2.6-4.3,7.2c0.3,7.6,1.9,10.8,6.1,16.1
			c0.2,0.2,0.2,0.3,0.4,0.6c2.1,2.8,5.1,8.7,4.9,12c-0.2,3.3-7.4,22.7-11.5,25.7c-4.1,3-13.8-2.3-16-5.2c-1.1-1.5-1.4-2.4-1.5-4
			c-0.5-5.6-1.4-9.4-1.9-12.2c-0.2-1,0.2-3.7,0.2-5.9c-0.1-4.3-0.8-8.3-1.7-12.7c-1-4.7-2.7-8.7-7.4-7.6c-4.7,1-5.4,5.6-5.2,9.7
			c0.2,4.2-0.1,6.6,0,10.1c0.1,3.2-1.7,7.7-1.3,10.1c0.3,1.6,0.6,5.3,0.6,9.1c-0.1,1.2-0.2,2.6-0.1,3.9c-0.1,2.5,0.2,4.6,0.8,6.5
			c1.4,7.6,4.2,14.5,4.2,14.5s3.9,14.4,4.7,20.3c1.1,8.4,3.8,126.8,3.8,126.8l44.4-0.9c0,0-3.5-111.8-1.7-123.6
			c0.6-4.2,4.2-18.8,7.4-24.8c3.3-6,17.8-22.8,17.8-22.8c0.6-0.7,1.3-2.2,1.6-3.1l6.5-30.1C317.6,193.9,319.3,188.3,315.6,187.4z"/>
		<g>
			<g>
				<path id="ampoule_7_" fill="#F7BF43" d="M276,140.2c0-14.2-11.6-25.6-25.7-25.6c-14.2,0-25.6,11.6-25.6,25.7
					c0,8.3,10,21.6,10,22.3c0,8.7,7.1,15.7,15.8,15.7c8.7,0,15.7-7.1,15.7-15.8C266.1,161.9,276,148.5,276,140.2"/>
				<path id="ampoule_6_" fill="#D1D3D4" d="M264.9,177.5l-29.3,0.1c-1.9,0-3.4-1.7-3.5-3.6c0-1.9,1.5-3.6,3.4-3.6l29.3-0.1
					c1.9,0,3.4,1.7,3.5,3.6C268.4,175.8,266.8,177.5,264.9,177.5"/>
				<path id="ampoule_5_" fill="#D1D3D4" d="M260.3,181.4l-19.9,0.1c-1.3,0-2.3-1.2-2.4-2.6c0-1.4,1-2.6,2.3-2.6l19.9-0.1
					c1.3,0,2.3,1.2,2.3,2.6C262.7,180.2,261.6,181.4,260.3,181.4"/>
				<path id="ampoule_4_" fill="#D1D3D4" d="M260.4,186l-19.9,0.1c-1.3,0-2.3-1.2-2.3-2.6c0-1.4,1-2.6,2.3-2.6l19.9-0.1
					c1.3,0,2.3,1.2,2.3,2.6C262.7,184.8,261.6,186,260.4,186"/>
				<path id="ampoule_3_" fill="#D1D3D4" d="M260.4,191.2l-19.9,0.1c-1.3,0-2.3-1.2-2.4-2.6c0-1.4,1-2.6,2.3-2.6l19.9-0.1
					c1.3,0,2.3,1.2,2.3,2.6C262.7,190,261.7,191.2,260.4,191.2"/>
				<path id="ampoule_2_" fill="#D1D3D4" d="M260.3,196.4l-19.9,0.1c-1.3,0-2.3-1.2-2.3-2.6c0-1.4,1-2.6,2.3-2.6l19.9-0.1
					c1.3,0,2.3,1.2,2.3,2.6C262.7,195.2,261.6,196.4,260.3,196.4"/>
				<polygon id="ampoule_1_" fill="#D1D3D4" points="259,197.5 256.2,201.6 245.1,201.6 242.1,197.5 242,173.7 259,173.6 				"/>
			</g>
			<g>

					<line fill="#F7BF43" stroke="#F7BF43" stroke-width="1.0924" stroke-miterlimit="10" x1="232.2" y1="112.5" x2="224.8" y2="101"/>
				<line fill="#F7BF43" stroke="#F7BF43" stroke-width="1.0924" stroke-miterlimit="10" x1="218" y1="134.2" x2="205" y2="132.8"/>

					<line fill="#F7BF43" stroke="#F7BF43" stroke-width="1.0924" stroke-miterlimit="10" x1="268.4" y1="113.3" x2="276" y2="102.8"/>

					<line fill="#F7BF43" stroke="#F7BF43" stroke-width="1.0924" stroke-miterlimit="10" x1="282.9" y1="136.9" x2="297.9" y2="137"/>
			</g>
		</g>
	</g>
</g>
</svg>
