<?xml version="1.0" encoding="utf-8"?>
<!-- Generator: Adobe Illustrator 18.1.1, SVG Export Plug-In . SVG Version: 6.00 Build 0)  -->
<svg version="1.1" id="Calque_1" xmlns="http://www.w3.org/2000/svg" xmlns:xlink="http://www.w3.org/1999/xlink" x="0px" y="0px"
	 width="118.3px" height="312px" viewBox="0 0 118.3 312" style="enable-background:new 0 0 118.3 312;" xml:space="preserve">
<g>
	<defs>
		<rect id="SVGID_1_" x="-43" width="160" height="312"/>
	</defs>
	<clipPath id="SVGID_2_">
		<use xlink:href="#SVGID_1_"  style="overflow:visible;"/>
	</clipPath>
	<g style="clip-path:url(#SVGID_2_);">
		<path style="fill:#3DC4DE;" d="M115.9,106.8c-3.8-1-7.9,3.4-8.9,7.3l-1.4,5.8l0.2-18.9c0-3.9,2-7-1.9-7c-1.3,0-2.5,0.4-3.6,1
			l-0.1-1.5c0.1-4,1.4-8.2-2.6-8.3c-3.9-0.1-7,6.8-7,10.7c0,0-1.7,13.9-1.9,17c-0.5,6.8-1.8,12.1-2.7,14.9
			c-2.3-4.6-6.6-8.4-9.6-12.3c-2.6-3.3-5.7-8.6-7.2-10.5c-2.4-3-5-8.4-5.8-8.4c-4.8,0-4.8,2.7-4.6,7.6c0.3,8,2.1,11.5,6.4,17
			c0.2,0.2,0.2,0.4,0.4,0.6c2.2,3,5.4,9.2,5.2,12.7c-0.2,3.5-7.9,24-12.2,27.2c-4.3,3.2-14.6-2.4-16.9-5.5c-1.2-1.6-1.4-2.5-1.6-4.2
			c-0.5-5.9-1.5-9.9-2-12.9c-0.2-1.1,0.2-4,0.2-6.3c-0.1-4.5-0.9-8.8-1.8-13.4c-1.1-5-2.9-9.2-7.9-8.1c-5,1.1-5.7,5.9-5.5,10.3
			c0.2,4.5-0.1,7,0,10.7c0.1,3.4-1.8,8.2-1.3,10.7c0.3,1.7,0.6,5.6,0.6,9.6c-0.1,1.3-0.2,2.7-0.1,4.1c-0.1,2.7,0.2,4.9,0.8,6.9
			c1.5,8,4.4,15.4,4.4,15.4s4.1,15.2,5,21.5c1.2,8.9,4,134.3,4,134.3l47-0.9c0,0-3.7-118.4-1.8-130.9c0.7-4.4,4.4-19.9,7.9-26.3
			c3.5-6.3,18.9-24.1,18.9-24.1c0.6-0.8,1.4-2.4,1.7-3.3l6.9-31.9C118,113.7,119.8,107.8,115.9,106.8z"/>
		<g>
			<g>
				<path id="ampoule_84_" style="fill:#3DC4DE;" d="M73.9,56.9c0-15-12.2-27.1-27.3-27.1c-15,0-27.2,12.2-27.1,27.3
					c0,8.8,10.6,22.9,10.6,23.6c0,9.2,7.5,16.6,16.7,16.6c9.2,0,16.6-7.5,16.6-16.7C63.4,79.8,73.9,65.7,73.9,56.9"/>
				<path id="ampoule_83_" style="fill:#D2D3D4;" d="M62.2,96.3l-31,0.1c-2,0-3.7-1.8-3.7-3.8c0-2,1.6-3.8,3.6-3.8l31-0.1
					c2,0,3.6,1.8,3.7,3.8C65.9,94.6,64.3,96.3,62.2,96.3"/>
				<path id="ampoule_82_" style="fill:#D2D3D4;" d="M57.4,100.5l-21.1,0.1c-1.4,0-2.5-1.2-2.5-2.8c0-1.5,1.1-2.8,2.5-2.8L57.4,95
					c1.4,0,2.5,1.2,2.5,2.7C59.8,99.2,58.7,100.5,57.4,100.5"/>
				<path id="ampoule_81_" style="fill:#D2D3D4;" d="M57.4,105.3l-21.1,0.1c-1.4,0-2.5-1.2-2.5-2.7c0-1.5,1.1-2.8,2.5-2.8l21.1-0.1
					c1.4,0,2.5,1.2,2.5,2.8C59.9,104.1,58.8,105.3,57.4,105.3"/>
				<path id="ampoule_80_" style="fill:#D2D3D4;" d="M57.4,110.8l-21.1,0.1c-1.4,0-2.5-1.2-2.5-2.7c0-1.5,1.1-2.8,2.5-2.8l21.1-0.1
					c1.4,0,2.5,1.2,2.5,2.7C59.9,109.6,58.8,110.8,57.4,110.8"/>
				<path id="ampoule_79_" style="fill:#D2D3D4;" d="M57.3,116.3l-21.1,0.1c-1.4,0-2.5-1.2-2.5-2.8c0-1.5,1.1-2.8,2.5-2.8l21.1-0.1
					c1.4,0,2.5,1.2,2.5,2.7C59.8,115.1,58.7,116.3,57.3,116.3"/>
				<polygon id="ampoule_78_" style="fill:#D2D3D4;" points="56,117.5 53,121.9 41.2,121.9 38.1,117.6 38,92.3 55.9,92.2 				"/>
			</g>
			<g>
				<line style="fill:#3DC4DE;stroke:#3DC4DE;stroke-width:0.5714;stroke-miterlimit:10;" x1="40.6" y1="23.3" x2="38.9" y2="8.9"/>
				<line style="fill:#3DC4DE;stroke:#3DC4DE;stroke-width:0.5714;stroke-miterlimit:10;" x1="16.7" y1="40.6" x2="3.5" y2="33.5"/>
				<line style="fill:#3DC4DE;stroke:#3DC4DE;stroke-width:0.5714;stroke-miterlimit:10;" x1="73.3" y1="33.3" x2="85" y2="20.8"/>
				
					<line style="fill:#3DC4DE;stroke:#3DC4DE;stroke-width:0.5714;stroke-miterlimit:10;" x1="82.3" y1="61.3" x2="97.6" y2="65.3"/>
				<line style="fill:#3DC4DE;stroke:#3DC4DE;stroke-width:0.5714;stroke-miterlimit:10;" x1="2" y1="70.4" x2="14.3" y2="66.6"/>
			</g>
		</g>
	</g>
</g>
</svg>
