<?xml version="1.0" encoding="utf-8"?>
<!-- Generator: Adobe Illustrator 18.1.1, SVG Export Plug-In . SVG Version: 6.00 Build 0)  -->
<svg version="1.1" id="Calque_1" xmlns="http://www.w3.org/2000/svg" xmlns:xlink="http://www.w3.org/1999/xlink" x="0px" y="0px"
	 width="102.5px" height="286px" viewBox="0 0 102.5 286" style="enable-background:new 0 0 102.5 286;" xml:space="preserve">
<g>
	<path style="fill:#41A669;" d="M2.1,86.3c3.4-0.8,7,3,7.8,6.4l1.3,5.1L11,81.1c0-3.4-1.7-6.1,1.7-6.1c1.1,0,2.2,0.3,3.1,0.9
		l0.1-1.4c-0.1-3.5-1.2-7.2,2.3-7.3c3.5-0.1,6.1,6,6.2,9.5c0,0,1.5,12.3,1.7,15c0.4,5.9,1.6,10.7,2.3,13.2c2-4.1,5.8-7.4,8.5-10.8
		c2.3-2.9,5-7.6,6.3-9.2c2.1-2.6,4.4-7.4,5.1-7.4c4.3,0,4.2,2.4,4,6.7C52,91,50.5,94.1,46.6,99c-0.2,0.2-0.2,0.3-0.4,0.6
		c-2,2.6-4.7,8.1-4.5,11.2c0.2,3.1,6.9,21.2,10.7,23.9c3.8,2.8,12.8-2.1,14.9-4.8c1-1.4,1.3-2.2,1.4-3.7c0.5-5.2,1.3-8.7,1.8-11.3
		c0.2-0.9-0.2-3.5-0.1-5.5c0.1-4,0.7-7.7,1.6-11.8c0.9-4.4,2.5-8.1,6.9-7.1c4.4,0.9,5,5.2,4.9,9.1c-0.2,3.9,0.1,6.1,0,9.4
		c-0.1,3,1.6,7.2,1.2,9.4c-0.3,1.5-0.6,5-0.6,8.5c0.1,1.2,0.1,2.4,0.1,3.6c0.1,2.4-0.2,4.3-0.7,6.1c-1.3,7.1-3.9,13.5-3.9,13.5
		s-3.6,13.4-4.4,18.9c-1,7.9-3.5,299.5-3.5,299.5l-41.4-0.8c0,0,3.2-285.5,1.6-296.5c-0.6-3.9-3.9-17.6-6.9-23.1
		c-3-5.6-16.6-21.3-16.6-21.3c-0.5-0.7-1.3-2.1-1.5-2.9L1.1,95.7C0.2,92.3-1.3,87.1,2.1,86.3z"/>
	<g>
		<g>
			<path id="ampoule_35_" style="fill:#F6BF41;" d="M39.1,42.3c0-13.2,10.8-23.9,24-23.9c13.2,0,23.9,10.8,23.9,24
				c0,7.8-9.3,20.2-9.3,20.8c0,8.1-6.6,14.6-14.7,14.6c-8.1,0-14.6-6.6-14.6-14.7C48.3,62.5,39.1,50,39.1,42.3"/>
			<path id="ampoule_34_" style="fill:#D2D3D4;" d="M49.3,77l27.3,0.1c1.8,0,3.2-1.5,3.2-3.3c0-1.8-1.4-3.3-3.2-3.3l-27.3-0.1
				c-1.8,0-3.2,1.6-3.2,3.3C46.1,75.4,47.6,77,49.3,77"/>
			<path id="ampoule_33_" style="fill:#D2D3D4;" d="M53.6,80.7l18.6,0.1c1.2,0,2.2-1.1,2.2-2.4c0-1.3-1-2.4-2.2-2.4l-18.6-0.1
				c-1.2,0-2.2,1.1-2.2,2.4C51.5,79.6,52.4,80.7,53.6,80.7"/>
			<path id="ampoule_32_" style="fill:#D2D3D4;" d="M53.6,84.9L72.2,85c1.2,0,2.2-1.1,2.2-2.4c0-1.3-1-2.4-2.2-2.4l-18.6,0
				c-1.2,0-2.2,1.1-2.2,2.4C51.4,83.8,52.4,84.9,53.6,84.9"/>
			<path id="ampoule_31_" style="fill:#D2D3D4;" d="M53.6,89.8l18.6,0.1c1.2,0,2.2-1.1,2.2-2.4c0-1.3-1-2.4-2.2-2.4l-18.6,0
				c-1.2,0-2.2,1.1-2.2,2.4C51.4,88.7,52.4,89.8,53.6,89.8"/>
			<path id="ampoule_30_" style="fill:#D2D3D4;" d="M53.7,94.6l18.6,0.1c1.2,0,2.2-1.1,2.2-2.4c0-1.3-1-2.4-2.2-2.4l-18.6,0
				c-1.2,0-2.2,1.1-2.2,2.4C51.5,93.5,52.5,94.6,53.7,94.6"/>
			<polygon id="ampoule_29_" style="fill:#D2D3D4;" points="54.9,95.7 57.5,99.5 67.9,99.5 70.6,95.7 70.7,73.4 54.9,73.4 			"/>
		</g>
		<g>
			<line style="fill:#F6BF41;stroke:#F6BF41;stroke-width:0.6355;stroke-miterlimit:10;" x1="68.4" y1="12.7" x2="69.9" y2="0"/>
			<line style="fill:#F6BF41;stroke:#F6BF41;stroke-width:0.6355;stroke-miterlimit:10;" x1="89.5" y1="28" x2="101" y2="21.7"/>
			<line style="fill:#F6BF41;stroke:#F6BF41;stroke-width:0.6355;stroke-miterlimit:10;" x1="39.6" y1="21.5" x2="29.3" y2="10.5"/>
			<line style="fill:#F6BF41;stroke:#F6BF41;stroke-width:0.6355;stroke-miterlimit:10;" x1="31.7" y1="46.2" x2="18.2" y2="49.7"/>
			
				<line style="fill:#F6BF41;stroke:#F6BF41;stroke-width:0.6355;stroke-miterlimit:10;" x1="102.4" y1="54.2" x2="91.6" y2="50.8"/>
		</g>
	</g>
</g>
</svg>
