<?xml version="1.0" encoding="utf-8"?>
<!-- Generator: Adobe Illustrator 18.1.1, SVG Export Plug-In . SVG Version: 6.00 Build 0)  -->
<!DOCTYPE svg PUBLIC "-//W3C//DTD SVG 1.1//EN" "http://www.w3.org/Graphics/SVG/1.1/DTD/svg11.dtd">
<svg version="1.1" id="Calque_1" xmlns="http://www.w3.org/2000/svg" xmlns:xlink="http://www.w3.org/1999/xlink" x="0px" y="0px"
	 width="58.92px" height="149.71px" viewBox="0 0 58.92 149.71" enable-background="new 0 0 58.92 149.71" xml:space="preserve">
<g>
	<path fill="#E65852" d="M57.76,45.37c-1.89-0.47-3.91,1.7-4.38,3.58l-0.7,2.84l0.09-9.33c0-1.9,0.97-3.43-0.93-3.43
		c-0.64,0-1.24,0.18-1.76,0.49l-0.04-0.76c0.04-1.95,0.68-4.03-1.27-4.07c-1.94-0.04-3.42,3.35-3.46,5.29c0,0-0.82,6.86-0.93,8.36
		c-0.24,3.32-0.89,5.96-1.31,7.36c-1.14-2.27-3.27-4.16-4.74-6.04c-1.28-1.64-2.8-4.25-3.53-5.17c-1.16-1.46-2.44-4.14-2.88-4.14
		c-2.39,0.01-2.37,1.34-2.26,3.73c0.16,3.95,1.02,5.64,3.17,8.39c0.09,0.11,0.12,0.18,0.22,0.31c1.09,1.47,2.64,4.55,2.54,6.26
		c-0.1,1.71-3.87,11.84-6,13.39c-2.13,1.55-7.18-1.18-8.34-2.71c-0.58-0.77-0.71-1.24-0.79-2.06c-0.27-2.9-0.73-4.88-0.99-6.35
		c-0.1-0.53,0.1-1.95,0.08-3.08c-0.04-2.23-0.42-4.33-0.91-6.62c-0.53-2.46-1.42-4.52-3.87-3.99c-2.45,0.52-2.81,2.93-2.71,5.08
		c0.1,2.2-0.05,3.44-0.01,5.27c0.03,1.67-0.87,4.03-0.66,5.25c0.15,0.84,0.32,2.77,0.32,4.75c-0.07,0.64-0.08,1.33-0.05,2.04
		c-0.05,1.33,0.12,2.42,0.42,3.41c0.74,3.95,2.17,7.57,2.17,7.57s2.03,7.49,2.44,10.57c0.58,4.4,0.97,58.15,0.97,58.15h23.15
		c0,0-0.81-50.8,0.12-56.94c0.33-2.16,2.17-9.82,3.87-12.94c1.7-3.11,9.3-11.89,9.3-11.89c0.29-0.38,0.7-1.17,0.82-1.63l3.4-15.71
		C58.79,48.74,59.65,45.83,57.76,45.37z"/>
	<g>
		<g>
			<path id="ampoule_77_" fill="#F7BF43" d="M37.06,20.75C37.04,13.36,31.03,7.38,23.63,7.4c-7.39,0.02-13.37,6.03-13.35,13.42
				c0.01,4.33,5.22,11.27,5.22,11.6c0.01,4.53,3.69,8.19,8.22,8.18s8.19-3.69,8.18-8.22C31.9,32.05,37.08,25.08,37.06,20.75"/>
			<path id="ampoule_76_" fill="#D1D3D4" d="M31.32,40.2l-15.27,0.04c-0.99,0-1.8-0.87-1.8-1.86s0.8-1.87,1.79-1.87l15.27-0.04
				c0.99,0,1.8,0.87,1.8,1.86C33.11,39.32,32.31,40.19,31.32,40.2"/>
			<path id="ampoule_75_" fill="#D1D3D4" d="M28.92,42.24l-10.38,0.03c-0.68,0-1.22-0.61-1.23-1.35c0-0.74,0.54-1.36,1.22-1.36
				l10.39-0.03c0.67,0,1.22,0.61,1.22,1.35C30.14,41.62,29.6,42.24,28.92,42.24"/>
			<path id="ampoule_74_" fill="#D1D3D4" d="M28.93,44.62l-10.39,0.03c-0.67,0-1.22-0.61-1.23-1.35c0-0.74,0.54-1.36,1.22-1.36
				l10.39-0.03c0.67,0,1.22,0.61,1.23,1.35C30.15,44,29.6,44.61,28.93,44.62"/>
			<path id="ampoule_73_" fill="#D1D3D4" d="M28.94,47.33l-10.38,0.03c-0.68,0-1.22-0.61-1.23-1.35c0-0.74,0.54-1.36,1.22-1.36
				l10.39-0.03c0.68,0,1.22,0.61,1.22,1.35C30.16,46.71,29.61,47.33,28.94,47.33"/>
			<path id="ampoule_72_" fill="#D1D3D4" d="M28.91,50.04l-10.39,0.03c-0.67,0-1.22-0.61-1.22-1.36c0-0.74,0.54-1.36,1.22-1.36
				l10.38-0.03c0.68,0,1.22,0.61,1.22,1.35C30.13,49.42,29.58,50.03,28.91,50.04"/>
			<polygon id="ampoule_71_" fill="#D1D3D4" points="28.23,50.62 26.77,52.76 20.96,52.77 19.42,50.65 19.38,38.2 28.2,38.18 			"/>
		</g>
		<g>
			<line fill="none" stroke="#F7BF43" stroke-width="1.0924" stroke-miterlimit="10" x1="14.25" y1="6.3" x2="10.39" y2="0.3"/>
			<line fill="none" stroke="#F7BF43" stroke-width="1.0924" stroke-miterlimit="10" x1="6.85" y1="17.6" x2="0.06" y2="16.9"/>
			<line fill="none" stroke="#F7BF43" stroke-width="1.0924" stroke-miterlimit="10" x1="33.11" y1="6.72" x2="37.06" y2="1.21"/>
			<line fill="none" stroke="#F7BF43" stroke-width="1.0924" stroke-miterlimit="10" x1="40.71" y1="19.04" x2="48.54" y2="19.09"/>
		</g>
	</g>
</g>
<g>
</g>
<g>
</g>
<g>
</g>
<g>
</g>
<g>
</g>
<g>
</g>
<g>
</g>
<g>
</g>
<g>
</g>
<g>
</g>
<g>
</g>
<g>
</g>
<g>
</g>
<g>
</g>
<g>
</g>
</svg>
