<?xml version="1.0" encoding="utf-8"?>
<!-- Generator: Adobe Illustrator 18.1.1, SVG Export Plug-In . SVG Version: 6.00 Build 0)  -->
<svg version="1.1" id="Calque_1" xmlns="http://www.w3.org/2000/svg" xmlns:xlink="http://www.w3.org/1999/xlink" x="0px" y="0px"
	 width="112.9px" height="236px" viewBox="0 0 112.9 236" style="enable-background:new 0 0 112.9 236;" xml:space="preserve">
<g>
	<path style="fill:#F4BD40;" d="M110.7,86.7c-3.6-0.9-7.5,3.3-8.4,6.9l-1.3,5.4l0.2-17.9c0-3.6,1.9-6.6-1.8-6.6
		c-1.2,0-2.4,0.3-3.4,0.9l-0.1-1.5c0.1-3.7,1.3-7.7-2.4-7.8c-3.7-0.1-6.6,6.4-6.6,10.2c0,0-1.6,13.2-1.8,16
		c-0.5,6.4-1.7,11.4-2.5,14.1c-2.2-4.3-6.3-8-9.1-11.6c-2.5-3.1-5.4-8.1-6.8-9.9c-2.2-2.8-4.7-7.9-5.5-7.9c-4.6,0-4.5,2.6-4.3,7.2
		c0.3,7.6,1.9,10.8,6.1,16.1c0.2,0.2,0.2,0.3,0.4,0.6c2.1,2.8,5.1,8.7,4.9,12c-0.2,3.3-7.4,22.7-11.5,25.7c-4.1,3-13.8-2.3-16-5.2
		c-1.1-1.5-1.4-2.4-1.5-4c-0.5-5.6-1.4-9.4-1.9-12.2c-0.2-1,0.2-3.7,0.2-5.9c-0.1-4.3-0.8-8.3-1.7-12.7c-1-4.7-2.7-8.7-7.4-7.6
		c-4.7,1-5.4,5.6-5.2,9.7c0.2,4.2-0.1,6.6,0,10.1c0.1,3.2-1.7,7.7-1.3,10.1c0.3,1.6,0.6,5.3,0.6,9.1c-0.1,1.2-0.2,2.6-0.1,3.9
		c-0.1,2.5,0.2,4.6,0.8,6.5c1.4,7.6,4.2,14.5,4.2,14.5s3.9,14.4,4.7,20.3c1.1,8.4,3.8,126.8,3.8,126.8l44.4-0.9
		c0,0-3.5-111.8-1.7-123.6c0.6-4.2,4.2-18.8,7.4-24.8c3.3-6,17.8-22.8,17.8-22.8c0.6-0.7,1.3-2.2,1.6-3.1l6.5-30.1
		C112.7,93.2,114.3,87.6,110.7,86.7z"/>
	<g>
		<g>
			<path id="ampoule_56_" style="fill:#F6BF41;" d="M71,39.5c0-14.2-11.6-25.6-25.7-25.6c-14.2,0-25.6,11.6-25.6,25.7
				c0,8.3,10,21.6,10,22.3c0,8.7,7.1,15.7,15.8,15.7c8.7,0,15.7-7.1,15.7-15.8C61.1,61.2,71,47.8,71,39.5"/>
			<path id="ampoule_55_" style="fill:#D2D3D4;" d="M60,76.8l-29.3,0.1c-1.9,0-3.4-1.7-3.5-3.6c0-1.9,1.5-3.6,3.4-3.6L60,69.7
				c1.9,0,3.4,1.7,3.5,3.6C63.4,75.1,61.9,76.8,60,76.8"/>
			<path id="ampoule_54_" style="fill:#D2D3D4;" d="M55.4,80.7l-19.9,0.1c-1.3,0-2.3-1.2-2.4-2.6c0-1.4,1-2.6,2.3-2.6l19.9-0.1
				c1.3,0,2.3,1.2,2.3,2.6C57.7,79.5,56.7,80.7,55.4,80.7"/>
			<path id="ampoule_53_" style="fill:#D2D3D4;" d="M55.4,85.3l-19.9,0.1c-1.3,0-2.3-1.2-2.3-2.6c0-1.4,1-2.6,2.3-2.6l19.9-0.1
				c1.3,0,2.3,1.2,2.3,2.6C57.7,84.1,56.7,85.3,55.4,85.3"/>
			<path id="ampoule_52_" style="fill:#D2D3D4;" d="M55.4,90.5l-19.9,0.1c-1.3,0-2.3-1.2-2.4-2.6c0-1.4,1-2.6,2.3-2.6l19.9-0.1
				c1.3,0,2.3,1.2,2.3,2.6C57.8,89.3,56.7,90.5,55.4,90.5"/>
			<path id="ampoule_51_" style="fill:#D2D3D4;" d="M55.4,95.7l-19.9,0.1c-1.3,0-2.3-1.2-2.3-2.6c0-1.4,1-2.6,2.3-2.6l19.9-0.1
				c1.3,0,2.3,1.2,2.3,2.6C57.7,94.5,56.7,95.7,55.4,95.7"/>
			<polygon id="ampoule_50_" style="fill:#D2D3D4;" points="54.1,96.8 51.3,100.9 40.1,100.9 37.2,96.8 37.1,73 54,72.9 			"/>
		</g>
		<g>
			<line style="fill:#F6BF41;stroke:#F6BF41;stroke-width:1.0924;stroke-miterlimit:10;" x1="27.3" y1="11.8" x2="19.9" y2="0.3"/>
			<line style="fill:#F6BF41;stroke:#F6BF41;stroke-width:1.0924;stroke-miterlimit:10;" x1="13.1" y1="33.5" x2="0.1" y2="32.1"/>
			<line style="fill:#F6BF41;stroke:#F6BF41;stroke-width:1.0924;stroke-miterlimit:10;" x1="63.4" y1="12.6" x2="71" y2="2"/>
			<line style="fill:#F6BF41;stroke:#F6BF41;stroke-width:1.0924;stroke-miterlimit:10;" x1="78" y1="36.2" x2="93" y2="36.3"/>
		</g>
	</g>
</g>
</svg>
