<?xml version="1.0" encoding="utf-8"?>
<!-- Generator: Adobe Illustrator 18.1.1, SVG Export Plug-In . SVG Version: 6.00 Build 0)  -->
<!DOCTYPE svg PUBLIC "-//W3C//DTD SVG 1.1//EN" "http://www.w3.org/Graphics/SVG/1.1/DTD/svg11.dtd">
<svg version="1.1" id="Calque_1" xmlns="http://www.w3.org/2000/svg" xmlns:xlink="http://www.w3.org/1999/xlink" x="0px" y="0px"
	 width="61px" height="152px" viewBox="0 0 61 152" enable-background="new 0 0 61 152" xml:space="preserve">
<g>
	<defs>
		<path id="SVGID_1_" d="M74,152h-342c-2.21,0-4-1.79-4-4V-64c0-2.21,1.79-4,4-4H74c2.21,0,4,1.79,4,4v212
			C78,150.21,76.21,152,74,152z"/>
	</defs>
	<clipPath id="SVGID_2_">
		<use xlink:href="#SVGID_1_"  overflow="visible"/>
	</clipPath>
	<g clip-path="url(#SVGID_2_)">
		<path fill="#F5BE41" d="M58.83,47.66c-1.89-0.47-3.91,1.7-4.38,3.58l-0.7,2.84l0.09-9.33c0-1.9,0.97-3.43-0.93-3.43
			c-0.64,0-1.24,0.18-1.76,0.49l-0.04-0.76c0.04-1.95,0.68-4.03-1.27-4.07c-1.94-0.04-3.42,3.35-3.46,5.29c0,0-0.82,6.86-0.93,8.36
			c-0.24,3.32-0.89,5.96-1.31,7.36c-1.14-2.27-3.27-4.16-4.74-6.04c-1.28-1.64-2.8-4.25-3.53-5.17c-1.16-1.46-2.44-4.14-2.88-4.14
			c-2.39,0.01-2.37,1.34-2.26,3.73c0.16,3.95,1.02,5.64,3.17,8.39c0.09,0.11,0.12,0.18,0.22,0.31c1.09,1.47,2.64,4.55,2.54,6.26
			c-0.1,1.71-3.87,11.84-6,13.39c-2.13,1.55-7.18-1.18-8.34-2.71c-0.58-0.77-0.71-1.24-0.79-2.06c-0.27-2.9-0.73-4.88-0.99-6.35
			c-0.1-0.53,0.1-1.95,0.08-3.08c-0.04-2.23-0.42-4.33-0.91-6.62c-0.53-2.46-1.42-4.52-3.87-3.99c-2.45,0.52-2.81,2.93-2.71,5.08
			c0.1,2.2-0.05,3.44-0.01,5.27c0.03,1.67-0.87,4.03-0.66,5.25c0.15,0.84,0.32,2.77,0.32,4.75c-0.07,0.64-0.08,1.33-0.05,2.04
			c-0.05,1.33,0.12,2.42,0.42,3.41c0.74,3.95,2.17,7.57,2.17,7.57s2.03,7.49,2.44,10.57c0.58,4.4,1.97,66.13,1.97,66.13l23.15-0.46
			c0,0-1.81-58.32-0.88-64.46c0.33-2.16,2.17-9.82,3.87-12.94c1.7-3.11,9.3-11.89,9.3-11.89c0.29-0.38,0.7-1.17,0.82-1.63l3.4-15.71
			C59.86,51.03,60.72,48.12,58.83,47.66z"/>
		<g>
			<g>
				<path id="ampoule_42_" fill="#F7BF43" d="M38.13,23.04C38.11,15.65,32.1,9.68,24.7,9.7c-7.39,0.02-13.37,6.03-13.35,13.42
					c0.01,4.33,5.22,11.27,5.22,11.6c0.01,4.53,3.69,8.19,8.22,8.18c4.53-0.01,8.19-3.69,8.18-8.22
					C32.97,34.34,38.15,27.38,38.13,23.04"/>
				<path id="ampoule_41_" fill="#D1D3D4" d="M32.39,42.49l-15.27,0.04c-0.99,0-1.8-0.87-1.8-1.86c0-0.99,0.8-1.87,1.79-1.87
					l15.27-0.04c0.99,0,1.8,0.87,1.8,1.86C34.18,41.61,33.38,42.48,32.39,42.49"/>
				<path id="ampoule_40_" fill="#D1D3D4" d="M29.99,44.53l-10.38,0.03c-0.68,0-1.22-0.61-1.23-1.35c0-0.74,0.54-1.36,1.22-1.36
					l10.39-0.03c0.67,0,1.22,0.61,1.22,1.35C31.21,43.91,30.67,44.53,29.99,44.53"/>
				<path id="ampoule_39_" fill="#D1D3D4" d="M30,46.91l-10.39,0.03c-0.67,0-1.22-0.61-1.23-1.35c0-0.74,0.54-1.36,1.22-1.36
					l10.39-0.03c0.67,0,1.22,0.61,1.23,1.35C31.22,46.29,30.67,46.91,30,46.91"/>
				<path id="ampoule_38_" fill="#D1D3D4" d="M30.01,49.62l-10.38,0.03c-0.68,0-1.22-0.61-1.23-1.35c0-0.74,0.54-1.36,1.22-1.36
					L30,46.91c0.68,0,1.22,0.61,1.22,1.35C31.23,49,30.68,49.62,30.01,49.62"/>
				<path id="ampoule_37_" fill="#D1D3D4" d="M29.98,52.33l-10.39,0.03c-0.67,0-1.22-0.61-1.22-1.36c0-0.74,0.54-1.36,1.22-1.36
					l10.38-0.03c0.68,0,1.22,0.61,1.22,1.35C31.2,51.71,30.65,52.32,29.98,52.33"/>
				<polygon id="ampoule_36_" fill="#D1D3D4" points="29.3,52.91 27.84,55.05 22.03,55.07 20.49,52.94 20.45,40.49 29.27,40.47 				
					"/>
			</g>
			<g>
				
					<line fill="#F7BF43" stroke="#F7BF43" stroke-width="1.0924" stroke-miterlimit="10" x1="15.32" y1="8.59" x2="11.46" y2="2.59"/>
				
					<line fill="#F7BF43" stroke="#F7BF43" stroke-width="1.0924" stroke-miterlimit="10" x1="7.92" y1="19.89" x2="1.13" y2="19.19"/>
				
					<line fill="#F7BF43" stroke="#F7BF43" stroke-width="1.0924" stroke-miterlimit="10" x1="34.18" y1="9.01" x2="38.13" y2="3.5"/>
				
					<line fill="#F7BF43" stroke="#F7BF43" stroke-width="1.0924" stroke-miterlimit="10" x1="41.78" y1="21.33" x2="49.61" y2="21.38"/>
			</g>
		</g>
	</g>
</g>
<g>
</g>
<g>
</g>
<g>
</g>
<g>
</g>
<g>
</g>
<g>
</g>
<g>
</g>
<g>
</g>
<g>
</g>
<g>
</g>
<g>
</g>
<g>
</g>
<g>
</g>
<g>
</g>
<g>
</g>
</svg>
